<svg width="120" height="46" viewBox="0 0 146 46" fill="none" xmlns="http://www.w3.org/2000/svg">
<path d="M64.7656 25.8929C65.5799 31.0233 66.8077 35.4579 67.6558 37.948L60.0222 43.8678V34.3823C60.0222 32.0511 60.9281 29.8157 62.5406 28.1674L64.7656 25.8929Z" fill="white"/>
<path d="M78.3442 37.948C79.1923 35.4579 80.4197 31.0233 81.2344 25.8929L83.4594 28.1674C85.0719 29.8157 85.9778 32.0511 85.9778 34.3823V43.8678L78.3442 37.948Z" fill="white"/>
<path d="M72.6421 21.6583C71.6834 21.6583 70.8911 22.4662 70.8911 23.4824C70.8911 24.4983 71.6834 25.3065 72.6421 25.3065H73.6823C74.641 25.3065 75.4333 24.4983 75.4333 23.4824C75.4333 22.4662 74.641 21.6583 73.6823 21.6583H72.6421Z" fill="white"/>
<path d="M70.8911 15.8542C70.8911 14.8381 71.6834 14.0301 72.6421 14.0301H73.6823C74.641 14.0301 75.4333 14.8381 75.4333 15.8542C75.4333 16.8703 74.641 17.6783 73.6823 17.6783H72.6421C71.6834 17.6783 70.8911 16.8703 70.8911 15.8542Z" fill="white"/>
<path fill-rule="evenodd" clip-rule="evenodd" d="M69.1911 37.4121C68.2891 34.7664 66.9115 29.7421 66.1313 24.031C65.7701 21.3886 65.5378 18.6078 65.5378 15.8542C65.5378 10.6908 67.5179 6.63045 69.5175 3.84535C70.5164 2.45351 71.5154 1.38746 72.2623 0.671509C72.5517 0.394043 72.8025 0.169743 73.0001 0C73.1977 0.169743 73.4484 0.394043 73.7378 0.671509C74.4847 1.38746 75.4837 2.45351 76.4827 3.84535C78.4822 6.63045 80.4623 10.6908 80.4623 15.8542C80.4623 18.6078 80.23 21.3886 79.8689 24.031C79.0886 29.7421 77.711 34.7664 76.809 37.4121H69.1911ZM69.5934 23.4824C69.5934 21.7508 70.9499 20.3317 72.6422 20.3317H73.6824C75.3747 20.3317 76.7312 21.7508 76.7312 23.4824C76.7312 25.2137 75.3747 26.6332 73.6824 26.6332H72.6422C70.9499 26.6332 69.5934 25.2137 69.5934 23.4824ZM72.6422 12.7034C70.9499 12.7034 69.5934 14.1227 69.5934 15.8542C69.5934 17.5857 70.9499 19.005 72.6422 19.005H73.6824C75.3747 19.005 76.7312 17.5857 76.7312 15.8542C76.7312 14.1227 75.3747 12.7034 73.6824 12.7034H72.6422Z" fill="white"/>
<path d="M70.1969 40.7286L69.7102 39.0703H76.2899L75.8033 40.7286H70.1969Z" fill="white"/>
</svg>
