<svg width="25" height="25" viewBox="0 0 25 25" fill="none" xmlns="http://www.w3.org/2000/svg">
<path d="M12.0538 24.1159C18.6812 24.1141 24.0524 18.7401 24.0506 12.1127C24.0488 5.48528 18.6748 0.114141 12.0474 0.11592C5.41995 0.117699 0.0488054 5.49172 0.0505843 12.1191C0.0523632 18.7466 5.42639 24.1177 12.0538 24.1159Z" fill="#988430"/>
<path d="M12.0537 23.7315C18.4689 23.7298 23.668 18.5279 23.6662 12.1128C23.6645 5.69767 18.4626 0.498578 12.0475 0.5003C5.63237 0.502022 0.433281 5.70391 0.435003 12.119C0.436725 18.5342 5.63861 23.7333 12.0537 23.7315Z" fill="#7A6A2A"/>
<path d="M12.0537 23.4868C18.3337 23.4851 23.4233 18.3928 23.4216 12.1128C23.4199 5.83286 18.3276 0.743309 12.0476 0.744995C5.76767 0.74668 0.678124 5.83896 0.67981 12.1189C0.681496 18.3989 5.77378 23.4884 12.0537 23.4868Z" fill="#BA9F33"/>
<path fill-rule="evenodd" clip-rule="evenodd" d="M5.2968 10.8362C5.22881 10.7741 5.15699 10.7119 5.09092 10.6499C5.02486 10.5878 4.957 10.5256 4.88902 10.4635L4.68698 10.2716C4.65395 10.2386 4.619 10.2095 4.58596 10.1764C4.55293 10.1473 4.51414 10.1143 4.48111 10.0852C4.21301 9.83089 3.94337 9.57663 3.67898 9.32223C3.95284 9.57266 4.22094 9.82129 4.4948 10.0754L4.58993 10.1706C4.62296 10.2035 4.65791 10.2327 4.69095 10.2657L4.89285 10.452C4.96084 10.5141 5.0269 10.5763 5.09489 10.644C5.16287 10.7117 5.22894 10.774 5.29692 10.8359L5.2968 10.8362ZM1.73954 10.7987C1.73954 10.7987 2.71428 10.8993 3.19008 10.9672C3.6308 11.0293 5.00954 11.2405 5.00954 11.2405L1.73954 10.7987ZM1.73954 10.7987C2.01334 10.8219 2.28714 10.8509 2.56094 10.88C2.70072 10.8936 2.83474 10.909 2.96875 10.9226L3.17446 10.9459C3.24243 10.9555 3.30848 10.9652 3.37645 10.9749L4.1921 11.1048L4.5998 11.1726C4.73382 11.1959 4.86784 11.2212 5.00763 11.2444C4.87361 11.2309 4.73382 11.2115 4.5998 11.1921L4.19211 11.1339L3.37646 11.0138C3.30849 11.0041 3.24244 10.9904 3.17447 10.9809L2.96864 10.9572C2.83462 10.9437 2.69484 10.9243 2.56082 10.9087C2.28701 10.8759 2.01321 10.8409 1.73941 10.7983L1.73954 10.7987ZM4.91259 11.4944C4.91259 11.4944 3.87189 11.7589 3.52043 11.86C3.17486 11.9552 2.12829 12.2739 2.12829 12.2739L4.91246 11.4946L4.91259 11.4944Z" fill="#CFB66C"/>
<path fill-rule="evenodd" clip-rule="evenodd" d="M4.91256 11.4945C4.68154 11.5625 4.4518 11.6286 4.21745 11.6909L3.52233 11.8775C3.29131 11.9455 3.06156 12.0116 2.83118 12.0796L2.48561 12.1748C2.37106 12.2079 2.25459 12.237 2.13619 12.2702C2.25062 12.2317 2.36721 12.1924 2.48176 12.1593L2.82733 12.0487C3.05836 11.9767 3.2881 11.9086 3.51848 11.8368C3.75334 11.7785 3.98449 11.7162 4.21936 11.6598C4.44258 11.6034 4.67757 11.5472 4.91256 11.4946L4.91256 11.4945ZM2.27422 12.9147C2.38864 12.8719 3.70893 12.2562 4.0157 12.1123C4.16928 12.0404 4.61571 11.8818 4.61571 11.8818L2.27422 12.9147Z" fill="#CFB66C"/>
<path fill-rule="evenodd" clip-rule="evenodd" d="M2.27408 12.9147C2.37494 12.8763 2.47016 12.8293 2.56717 12.7846L2.85449 12.6505L3.43119 12.3727C3.62316 12.2814 3.80976 12.1806 4.00775 12.0948C4.10873 12.0522 4.20971 12.0172 4.31057 11.9841L4.46416 11.9356C4.51651 11.922 4.56514 11.9064 4.61775 11.8928C4.42577 11.9841 4.22368 12.0619 4.03145 12.1511C3.83947 12.2464 3.64314 12.3242 3.44502 12.4096L2.85872 12.6679C2.66188 12.7477 2.4699 12.8332 2.27396 12.9147L2.27408 12.9147ZM2.40223 13.4523C2.40223 13.4523 3.59807 12.7511 4.00966 12.5257C4.22518 12.4053 4.92217 12.0594 4.92217 12.0594L2.40223 13.4523Z" fill="#CFB66C"/>
<path fill-rule="evenodd" clip-rule="evenodd" d="M2.40247 13.4525C2.6043 13.3281 2.81009 13.2019 3.01588 13.0737L3.32303 12.8871C3.42784 12.825 3.52882 12.7667 3.63568 12.7046C3.7405 12.6424 3.84147 12.5803 3.94821 12.522C3.99902 12.4906 4.05226 12.4634 4.10742 12.4405L4.27047 12.3589C4.48599 12.254 4.70152 12.147 4.92869 12.0557C4.7229 12.1859 4.51122 12.2967 4.29967 12.4112C4.19485 12.4695 4.08798 12.522 3.98317 12.5803C3.87835 12.6385 3.77738 12.7008 3.67051 12.7571C3.5657 12.8192 3.46472 12.8775 3.35798 12.9338L3.04149 13.1067L2.40273 13.4525L2.40247 13.4525ZM4.91273 12.2129C4.91273 12.2129 4.16921 12.784 3.92849 12.9666C3.68777 13.1492 2.97917 13.662 2.97917 13.662L4.91273 12.2129Z" fill="#CFB66C"/>
<path fill-rule="evenodd" clip-rule="evenodd" d="M9.18198 16.8157L8.80124 16.0955L9.02231 15.1944L10.6008 14.5843L9.92853 13.2059L10.2602 11.8136L10.8832 10.5667L12.8094 10.2633L14.2245 8.91346L17.2809 9.14368L17.8817 12.4115L16.7275 16.5264L16.0699 18.6567L13.4019 18.7584L12.1629 17.9005L10.7122 17.2949L9.18198 16.8157Z" fill="#E2CC85"/>
<path fill-rule="evenodd" clip-rule="evenodd" d="M13.8615 16.7912C13.8615 16.7912 13.4926 16.9602 12.8632 16.9215C12.681 16.6769 11.4053 16.5627 11.4053 16.5627C11.4053 16.5627 11.246 16.5142 10.9645 16.6308C10.6811 16.7461 10.4131 16.7319 10.1626 16.7941C9.91211 16.8562 9.66332 16.5302 9.4713 16.4622C9.27928 16.3905 9.02464 16.2178 9.02464 16.2178L8.48703 16.1654L7.40735 15.7094L5.69182 14.0012L5.22597 14.7309L5.08247 15.6339L5.60128 16.7037L6.99772 17.9751L9.72021 18.6656L11.3337 18.1897L13.3548 17.3348L13.8615 16.791L13.8615 16.7912Z" fill="#F1D789"/>
<path fill-rule="evenodd" clip-rule="evenodd" d="M4.18797 10.7549L4.53329 9.70828L4.94488 9.03233L6.27093 8.92125L5.87317 10.0826L4.76509 12.0557L5.22572 13.8168L4.41034 14.2247L4.15962 13.8403L3.95752 12.9589L3.94369 11.9685L4.18797 10.7549Z" fill="#F4ECB4"/>
<path fill-rule="evenodd" clip-rule="evenodd" d="M5.67697 16.7216L5.42253 16.3663C5.42253 16.3663 5.35452 16.1974 5.39339 16.0498C5.43175 15.9003 5.42625 15.8905 5.4069 15.8342C5.38756 15.7779 5.22431 15.5838 5.23399 15.4167C5.24355 15.2478 5.22036 15.1915 5.34449 15.0575C5.4745 14.9275 5.43566 14.7022 5.43566 14.7022L5.60464 14.807L5.64303 14.7487C5.64303 14.7487 5.70512 14.7972 5.70514 14.873C5.71868 14.7682 5.66223 14.2827 5.79033 14.1721C5.91843 14.0614 6.1458 14.6904 6.1458 14.6904L6.00578 13.7778L5.64623 12.842L5.00715 11.9878L4.9685 11.046L4.96848 10.9645C4.96848 10.9645 4.67535 11.4151 4.59391 11.771C4.53573 12.0156 4.67559 12.3126 4.64663 12.6641C4.6233 13.0137 4.59424 12.9865 4.67965 13.1249C4.76506 13.2634 4.97301 13.5481 4.89153 13.754C4.81977 13.9308 4.575 13.8066 4.575 13.8066C4.575 13.8066 4.52653 13.9502 4.46049 14.0027C4.43717 13.9173 4.41194 13.8629 4.36534 13.8107C4.36138 13.8437 4.35179 13.8884 4.35179 13.8884C4.35179 13.8884 4.309 13.7544 4.2662 13.5855C4.20803 13.3603 4.14574 13.0632 4.08938 12.904C4.06611 12.9953 4.00794 13.2729 4.00794 13.2729L4.04108 13.7002L4.20047 14.2865L4.35418 14.6705L4.50381 15.1403L4.63381 15.4559L4.73871 15.6967L4.83012 16.2385L5.27094 16.7043L5.50598 16.8092L5.67671 16.7217L5.67697 16.7216Z" fill="#F3E19D"/>
<path fill-rule="evenodd" clip-rule="evenodd" d="M4.41898 9.90055C4.41898 9.90055 4.10258 10.4382 4.01159 10.9802C3.9206 11.5222 3.83909 12.0949 3.89688 12.8327C3.95532 13.5765 4.06617 14.0326 4.1556 14.3589C4.30934 14.9006 4.70737 15.6539 4.70737 15.6539L4.72093 15.6248C4.65403 15.498 4.60062 15.3646 4.56159 15.2267C4.50906 15.0209 4.48953 14.7763 4.44099 14.6656C4.39821 14.555 4.32638 14.4598 4.2914 14.3239C4.25834 14.1938 4.25291 13.988 4.15149 13.8347C4.10872 13.7725 4.0562 13.6095 4.04066 13.4464C4.02114 13.2017 4.05025 12.9279 4.0269 12.7027C3.98404 12.3279 3.95492 12.0736 3.99365 11.8774C4.03238 11.6811 4.23435 11.124 4.35851 10.6812C4.43997 10.3977 4.39127 10.1589 4.54071 9.91217C4.69015 9.66752 4.78148 9.45194 4.81434 9.30243C4.8527 9.16648 4.41847 9.90055 4.41847 9.90055L4.41898 9.90055Z" fill="#F2E8B0"/>
<path fill-rule="evenodd" clip-rule="evenodd" d="M5.91977 9.68453C5.91977 9.68453 5.75671 9.73321 5.67904 9.81861C5.60136 9.90016 5.56836 9.96814 5.46356 10.106C5.35877 10.2439 5.35291 10.3566 5.26745 10.5294C5.18212 10.6984 4.99377 10.9527 4.9705 11.044C4.94723 11.1353 4.90856 11.5624 4.8601 11.7644C4.8174 11.9664 4.90874 12.215 4.90874 12.215L5.01932 12.1915C5.01932 12.1915 5.01936 12.3353 5.13011 12.4324C5.24072 12.5275 5.26007 12.1099 5.26007 12.1099L5.67326 10.7137L6.29638 10.2902L6.36426 9.94847L5.91951 9.68453L5.91977 9.68453Z" fill="#F5EEC0"/>
<path fill-rule="evenodd" clip-rule="evenodd" d="M6.22299 10.3175C6.22299 10.3175 5.92975 10.3369 5.78616 10.4419C5.72793 10.4846 5.70465 10.5195 5.64258 10.572C5.52805 10.6671 5.41146 10.7546 5.3553 10.8793C5.29313 11.0035 5.22521 11.1919 5.17871 11.5472C5.1593 11.6967 5.15934 11.8346 5.1458 11.955C5.12639 12.1181 5.09737 12.2482 5.11288 12.3391C5.13238 12.5254 5.32467 12.6225 5.34341 12.8341L5.74144 12.6321L6.11582 11.1543L6.91185 10.6549L6.46115 10.1501L6.22248 10.3166L6.22299 10.3175Z" fill="#E6DB9D"/>
<path fill-rule="evenodd" clip-rule="evenodd" d="M4.12541 20.2689C4.12707 20.2543 4.12873 20.2397 4.13039 20.2248C4.18837 19.7256 4.19812 19.3472 4.24069 19.1102C4.30268 18.7744 4.34539 18.6494 4.33563 18.5237C4.32201 18.3219 4.30648 18.1743 4.3259 18.0189C4.3549 17.8131 4.55682 17.5684 4.55101 17.3994C4.54701 17.2654 4.47901 17.1781 4.42075 17.0966C4.36249 17.0151 4.31588 16.9472 4.31588 16.9472C4.31588 16.9472 4.71389 16.6733 4.70975 15.5703C4.71788 15.5726 4.7257 15.5758 4.73305 15.58L4.9293 16.1371L5.06336 16.3002L5.57817 17.2593L6.24049 17.9019L7.21923 18.5598L7.83304 19.2274L7.8956 21.008L7.09395 22.049L6.96269 22.2869C5.91918 21.7633 4.96224 21.0827 4.12528 20.2688L4.12541 20.2689Z" fill="#E5CB7A"/>
<path fill-rule="evenodd" clip-rule="evenodd" d="M6.57561 21.9717C6.57561 21.9717 6.58912 21.7504 6.7716 21.6066C6.8008 21.6551 6.82014 21.7018 6.81439 21.7367C6.8474 21.6785 7.07834 21.3056 7.60068 21.2083C8.12302 21.1131 8.24913 20.7325 8.24913 20.7325L9.35747 19.7244L10.6251 18.5571L12.1667 18.0149L12.8872 17.8379C12.8872 17.8379 12.9008 17.8904 12.8737 18.0069C13.0076 17.9973 13.3046 17.9292 13.6133 17.8203C13.7376 17.7718 13.8542 17.7523 13.9163 17.8164C14.0076 17.9018 14.0212 18.1037 14.027 18.2241C14.1765 18.191 14.3493 18.0473 14.4878 18.0609C14.7092 18.0841 14.9054 18.3443 15.1307 18.3442C15.4278 18.3441 15.5616 18.1616 15.7694 18.0178C15.8937 17.9324 16.0722 17.8257 16.1732 17.7536C16.4139 17.5768 18.9613 16.7975 18.9613 16.7975L19.8545 16.8555L19.9985 17.8146L19.9224 20.3222C19.9129 20.3313 19.9034 20.3408 19.8938 20.3498L15.8332 22.472L10.204 23.3365C8.94293 23.1308 7.72592 22.7126 6.60483 22.0996L6.57599 21.9716L6.57561 21.9717Z" fill="#D8C173"/>
<path fill-rule="evenodd" clip-rule="evenodd" d="M4.46689 20.5878C4.54685 20.4205 4.61875 20.2806 4.6314 20.2305C4.64142 20.3314 4.65978 20.5527 4.69671 20.788C4.61929 20.7222 4.54269 20.6554 4.46689 20.5877L4.46689 20.5878Z" fill="#F1D789"/>
<path fill-rule="evenodd" clip-rule="evenodd" d="M8.57977 22.9465L9.30778 22.7438L9.36987 22.7632C9.36987 22.7632 9.40289 22.7827 9.40291 22.8486C9.49416 22.7962 9.57186 22.8058 9.62817 22.771C9.65724 22.833 9.68636 23.0389 9.81462 23.064C9.94851 23.0932 10.0922 23.0057 10.2379 22.8951C10.3815 22.7805 10.545 22.6367 10.6688 22.5784C10.7142 22.6619 10.7544 22.7481 10.7893 22.8366C10.9523 22.7065 11.2357 22.1783 11.6395 22.1878C11.7562 21.9119 11.9511 21.6763 12.2002 21.51C12.575 21.2556 12.8098 21.236 13.1031 21.2593C13.2195 21.1079 13.363 20.9795 13.5263 20.8805C13.5748 20.9 13.7088 20.9815 13.8759 20.9037C14.0448 20.8261 14.2349 20.525 14.4854 20.4862C14.6204 20.4675 14.7577 20.4963 14.8738 20.5676C14.8738 20.5676 15.6032 19.843 16.1066 19.6021C16.0871 19.5439 16.0482 19.3245 16.6383 18.8389C16.6713 18.868 16.6481 18.9496 16.6714 18.954C16.681 18.954 16.825 18.8919 17.0072 18.752C17.2324 18.5831 17.5022 18.4062 17.6653 18.3577C17.9724 18.2663 18.2984 18.4526 18.2984 18.4526C18.3261 18.4332 18.357 18.4187 18.3896 18.4098C18.4672 18.3963 18.5235 18.3865 18.5663 18.3714C18.5624 18.4724 18.6188 18.6452 18.5664 18.7947C18.6272 18.8289 18.6916 18.8562 18.7584 18.8762C18.7255 18.948 18.6536 19.1305 18.5333 19.218C18.6342 19.2665 18.6478 19.3228 18.7915 19.3715C18.7333 19.4531 18.638 19.593 18.5955 19.6788C18.5528 19.7701 18.3994 20.1487 18.3315 20.2924C18.2597 20.4361 18.1628 20.7002 18.1161 20.7532C18.0694 20.8062 17.9006 21.0309 17.7706 21.1415C17.8858 21.0987 18.357 20.955 18.5569 20.9005C18.4975 20.9879 18.1959 21.4356 17.9059 21.8661C16.5174 22.6988 14.9674 23.2261 13.3591 23.4127C11.7508 23.5994 10.1212 23.4411 8.57888 22.9484L8.57977 22.9465Z" fill="#E0CD81"/>
<path fill-rule="evenodd" clip-rule="evenodd" d="M6.27098 10.265C6.27098 10.265 6.10214 10.2651 6.06913 10.2884C6.03611 10.3117 6.23811 10.3603 6.30019 10.3835C6.36228 10.4068 6.49632 10.5135 6.53129 10.599C6.56434 10.6806 7.74501 11.1559 7.74501 11.1559L8.57994 11.1129L8.8677 10.7151L8.31999 10.2357L8.70369 9.10354L8.19504 9.18521L6.97194 9.91514L6.35837 10.1503L6.27098 10.265Z" fill="#DFC57C"/>
<path fill-rule="evenodd" clip-rule="evenodd" d="M8.10447 10.6394C8.11654 10.6589 8.13355 10.6749 8.15377 10.6858C8.17399 10.6967 8.19673 10.7021 8.21969 10.7014C8.39249 10.7014 8.5516 10.7441 8.61767 10.8314C8.72843 10.9712 9.03537 11.4177 9.03537 11.4177L9.76939 11.6816L9.81652 10.8173L9.01445 10.2604L8.1019 10.5965L8.10191 10.6392L8.10396 10.6392L8.10447 10.6394Z" fill="#E5CC7C"/>
<path fill-rule="evenodd" clip-rule="evenodd" d="M7.96071 10.9597C7.96071 10.9597 8.0946 10.9694 8.26354 10.9072C8.43249 10.8449 8.71008 10.711 8.83055 10.7634C8.9994 10.8352 8.96451 11.0605 9.14722 11.2625C9.25785 11.3868 9.45983 11.3829 9.57443 11.5169C9.68902 11.6509 10.0831 11.5886 10.0831 11.5886L10.2328 12.3949L9.63311 13.1641L9.43714 14.1194L8.62588 14.1196L7.88468 13.8258L7.51939 12.9427L7.70168 12.0495L7.96071 10.9597Z" fill="#D2C281"/>
<path fill-rule="evenodd" clip-rule="evenodd" d="M9.52986 10.9981C9.54998 11.0043 9.57089 11.0076 9.59194 11.0078C9.56865 11.0273 9.52002 11.0699 9.53951 11.1806C9.559 11.2914 9.62111 11.4311 9.56879 11.5165C9.61059 11.5622 9.64177 11.6166 9.66009 11.6757C9.69314 11.7709 9.70289 11.8582 9.91832 11.8719C9.88724 11.891 9.85858 11.9138 9.83296 11.9399C9.83296 11.9399 9.9825 12.0699 10.0583 12.1902C10.1359 12.1868 10.3417 12.1228 10.3417 12.1228L10.3844 12.1519L10.4757 12.1135C10.4757 12.1135 10.3903 12.0805 10.4523 11.8727C10.5105 11.6902 10.563 11.6999 10.5675 11.6864C10.572 11.6728 10.6102 11.4805 10.6102 11.4028C10.6392 11.3019 10.6624 10.9951 10.6624 10.9951L10.6001 10.3175L10.2506 10.1059L9.96641 9.83166L9.69852 10.3366L9.52205 10.5126L9.5086 10.9495L9.52986 10.9981Z" fill="#E2C270"/>
<path fill-rule="evenodd" clip-rule="evenodd" d="M10.3706 10.431C10.3706 10.431 10.4328 10.6076 10.4562 10.7435C10.4645 10.7171 10.469 10.6897 10.4698 10.662C10.4698 10.662 10.5184 10.93 10.528 11.0407C10.5474 11.0368 10.5664 11.031 10.5707 11.0503C10.5751 11.0697 10.6194 11.2853 10.6092 11.4056C10.6901 11.2722 10.8019 11.1603 10.9353 11.0794C11.013 11.0308 11.1042 10.9784 11.1995 10.9744C11.349 10.9705 11.4577 11.0696 11.6363 11.0695C12.0673 11.0694 12.4576 10.7527 12.745 10.6556C12.9565 10.5836 13.139 10.5312 13.2671 10.4146C13.3293 10.3622 13.44 10.2457 13.5408 10.0728C13.6748 9.84233 13.8145 9.64172 13.9544 9.61646C13.8911 9.62811 13.8267 9.63268 13.7624 9.63008C13.7624 9.63008 13.8052 9.58732 13.8776 9.52906C13.95 9.4708 14.0368 9.39897 14.1609 9.39894C14.3824 9.39888 14.493 9.43174 14.6173 9.43171C14.7416 9.42784 14.8134 9.39876 14.8134 9.39876C14.8134 9.39876 14.9436 9.48999 15.2367 9.48991C15.5299 9.49367 15.726 9.51884 15.8795 9.53249C16.033 9.54615 16.5474 9.48956 16.695 9.49387C16.7912 9.49755 16.8857 9.52065 16.9728 9.56177L16.4966 8.17949L14.7872 6.68619L13.7699 7.40685L12.2051 8.97233L10.6908 9.53388L10.3743 9.8893L10.3745 10.431L10.3706 10.431Z" fill="#CCB360"/>
<path fill-rule="evenodd" clip-rule="evenodd" d="M13.7685 9.63774C13.7685 9.63774 13.8112 9.5951 13.8829 9.53685C13.9546 9.47859 14.0422 9.40663 14.1664 9.40659C14.3877 9.40653 14.4984 9.43953 14.6227 9.43949C14.747 9.43562 14.8188 9.40642 14.8188 9.40642C14.8188 9.40642 14.9491 9.49752 15.2421 9.49744C15.5354 9.5012 15.7315 9.52637 15.885 9.53989C16.0384 9.55342 16.5529 9.49709 16.7004 9.50127C16.7966 9.50487 16.8911 9.52797 16.9781 9.56917L16.7624 8.94586L16.5119 8.47028L15.797 7.68788C15.797 7.68788 14.9393 7.18328 14.9328 7.17944C14.9289 7.1756 14.6357 7.09799 14.6357 7.09799L13.8591 7.56808L13.1548 9.39163L13.1413 9.77564L13.5976 9.99107C13.7121 9.79904 13.8384 9.6454 13.9568 9.62591C13.8499 9.63759 13.7684 9.63761 13.7684 9.63761L13.7685 9.63774Z" fill="#D5B457"/>
<path fill-rule="evenodd" clip-rule="evenodd" d="M13.7588 9.76799C13.6909 9.77185 13.6347 9.7583 13.619 9.70979C13.5608 9.54673 13.5142 9.52345 13.4654 9.52346C13.4166 9.52348 13.3509 9.62832 13.3118 9.63794C13.2728 9.64755 13.2264 9.51764 13.2264 9.51764L13.1837 9.49819C13.1837 9.49819 12.9332 9.66133 12.7566 9.85364C12.58 10.0459 12.2907 10.3723 12.1607 10.4304C12.0306 10.4886 11.5839 10.5083 11.4311 10.5414C11.2783 10.5744 11.1088 10.6852 11.0856 10.7104C11.0623 10.7356 11.1537 10.7627 11.1672 10.788C11.1808 10.8112 11.0176 10.8016 11.004 10.8264C10.9945 10.8459 11.0425 10.9564 11.0663 11.0127C11.108 10.992 11.1537 10.9807 11.2002 10.9797C11.3497 10.9758 11.4585 11.0748 11.6371 11.0748C12.0682 11.0747 12.4584 10.758 12.7457 10.6608C12.9574 10.5889 13.1399 10.5364 13.268 10.4199C13.3301 10.3675 13.4408 10.2509 13.5417 10.0781C13.6154 9.95965 13.6873 9.84891 13.7592 9.76735L13.7588 9.76799Z" fill="#D2B257"/>
<path fill-rule="evenodd" clip-rule="evenodd" d="M7.57895 19.3793C7.57895 19.3793 7.54051 19.2356 7.18457 18.8649C7.08355 18.7601 7.02145 18.6729 6.95346 18.6106C6.78446 18.4513 6.68538 18.4087 6.56503 18.3175C6.30092 18.1214 6.01356 18.1215 5.79218 17.8808C5.5708 17.6401 5.31276 17.1801 5.13343 16.71C4.95667 16.2402 4.90799 16.0907 4.90798 16.0771C4.90798 16.0636 4.9566 15.9723 5.01868 15.9858C5.08076 15.9994 5.0808 16.1197 5.09642 16.1489C5.12736 16.1965 5.16245 16.2413 5.20129 16.2828C5.29258 16.3877 5.42266 16.5131 5.48876 16.7002C5.47515 16.541 5.4207 16.3644 5.4207 16.3644C5.4207 16.3644 5.76252 16.5798 6.05378 16.8049C6.34709 17.0301 6.46743 17.1078 6.5531 17.2513C6.63877 17.3949 6.8406 17.7736 6.93727 17.8843C7.03394 17.995 8.35821 18.4121 8.35821 18.4121L8.98822 18.8815L9.30111 19.5669L9.05648 19.951L8.58662 20.0521L7.82339 19.7105L7.57895 19.3792L7.57895 19.3793Z" fill="#D2B159"/>
<path fill-rule="evenodd" clip-rule="evenodd" d="M5.88296 17.0186C5.88296 17.0186 6.04226 17.2729 6.43068 17.5135C6.7803 17.7252 7.3337 17.9173 7.82704 18.0317C8.11045 18.0996 8.39399 18.1519 8.64832 18.1558C9.33377 18.1652 9.80552 17.9691 10.3901 17.9048C10.7066 17.8717 11.095 17.8464 11.4988 17.7509C12.0171 17.6265 12.3239 17.4865 12.7414 17.2898C13.0442 17.1499 13.3219 17.045 13.5471 16.9109C13.8636 16.7245 14.0945 16.5167 14.3626 16.4545C14.3296 16.5458 14.2947 16.7089 14.0306 16.8779C14.1704 16.8739 14.3627 16.8642 14.3627 16.8642C14.3627 16.8642 14.1763 16.9749 13.8482 17.2235C13.6463 17.3772 13.3784 17.6372 13.1047 17.8101C12.9279 17.9209 12.7357 18.0022 12.6095 18.0686C12.3024 18.2376 12.1785 18.323 11.9767 18.5295C12.0485 18.5257 12.0544 18.5295 12.0544 18.5295C12.0544 18.5295 11.7999 18.5626 11.6175 18.6597C11.5791 18.6597 11.5126 18.6461 11.3961 18.6792C11.3049 18.7083 11.1844 18.7745 11.0603 18.8093C10.8835 18.8618 10.8254 18.8386 10.8254 18.8386L10.8545 18.8968C10.8545 18.8968 10.6241 18.8929 10.5473 18.9007C10.5608 18.9046 10.557 18.9104 10.557 18.9104C10.5435 18.9127 10.5305 18.9173 10.5186 18.924C10.4817 18.948 10.441 18.9657 10.3983 18.9764C10.375 18.9803 10.3556 18.9803 10.3264 18.9862C10.3361 19.0094 10.4119 19.1397 10.4469 19.2165C10.4178 19.236 9.98093 19.5662 9.98093 19.5662C9.99449 19.5875 10.0056 19.6103 10.014 19.6342C10.0275 19.6768 10.0335 19.739 10.047 19.7681C10.0799 19.8263 10.0994 19.836 10.0994 19.836C10.0994 19.836 10.0471 19.8457 9.95566 19.8691C9.8781 19.8885 9.78288 19.9215 9.64848 19.941C9.60725 19.9463 9.56577 19.9496 9.5242 19.9507C9.54367 19.9935 9.62909 20.1565 9.47182 20.3448C9.31456 20.5332 9.26606 20.5606 9.21758 20.6809C9.19315 20.6625 9.16715 20.6462 9.13987 20.6323C9.08751 20.609 9.01557 20.5742 8.99034 20.5275C8.97565 20.5898 8.9562 20.6508 8.93215 20.71C8.88367 20.8401 8.8119 20.9684 8.79835 21.0654C8.74586 21.0072 8.6488 20.8927 8.51479 20.916C8.38078 20.9393 8.27408 21.1219 8.2508 21.1744C8.25079 21.1413 8.22749 21.1161 8.22174 21.1549C8.21778 21.1977 8.14417 21.6441 7.73262 22.0055C7.72876 21.9142 7.7287 21.7122 7.71896 21.6463C7.68057 21.6847 7.63361 21.7414 7.35396 21.862C7.0802 21.9824 7.12362 22.1028 7.12362 22.1028C7.12362 22.1028 7.10028 21.9108 7.24781 21.7085C7.39726 21.5066 7.48849 21.4114 7.48849 21.3959C7.48607 21.3801 7.47934 21.3653 7.46902 21.3531C7.44956 21.3337 7.41077 21.3104 7.41077 21.2949C7.43406 21.2853 7.66507 21.1745 7.65144 20.9453C7.63782 20.7396 7.55049 20.6327 7.48827 20.5571C7.47866 20.5474 7.57964 20.4755 7.56593 20.4522C7.5562 20.4387 7.43202 20.3473 7.41639 20.2987C7.42005 20.2697 7.42656 20.2411 7.43582 20.2133C7.44938 20.1705 7.4591 20.1414 7.45525 20.1123C7.44551 20.0638 7.39299 19.9298 7.3775 19.9162C7.39107 19.9201 7.48809 19.9162 7.48809 19.9162C7.48809 19.9162 7.41049 19.7919 7.39678 19.7337C7.38307 19.6755 7.35397 19.522 7.33848 19.4929C7.3715 19.4968 7.45304 19.5025 7.45304 19.4929C7.457 19.4637 7.38121 19.4152 7.4146 19.3777C7.4379 19.3816 7.48258 19.401 7.52522 19.4554C7.5019 19.3932 7.46309 19.2729 7.38141 19.2244C7.41981 19.2108 7.55036 19.1757 7.66494 19.2436C7.77951 19.3116 7.81858 19.4067 7.81858 19.4067C7.81858 19.4067 7.88656 19.4591 7.99154 19.5368C8.11189 19.6319 8.26527 19.7671 8.51003 19.8628C8.56252 19.892 8.69641 19.8919 8.79355 19.8725C8.83585 19.8624 8.8764 19.846 8.91386 19.8239C8.92739 19.8159 8.94171 19.8094 8.95661 19.8044C8.93572 19.7625 8.91171 19.7223 8.88477 19.684C8.91779 19.684 8.95658 19.688 8.95658 19.688C8.95658 19.688 8.97986 19.6355 8.875 19.5344C8.89829 19.5111 8.92747 19.496 8.92746 19.4567C8.89443 19.4528 8.83618 19.4043 8.82261 19.3849C8.84193 19.3713 8.8711 19.3266 8.90412 19.3131C8.87493 19.2898 8.8031 19.1926 8.77007 19.1831C8.80162 19.1713 8.83214 19.157 8.86133 19.1403C8.86133 19.1403 8.69824 19.0976 8.64575 19.0626C8.59326 19.0243 8.51568 18.9578 8.46908 18.9384C8.42043 18.919 8.33505 18.9094 8.3001 18.8705C8.333 18.8802 8.38548 18.8705 8.42439 18.8704C8.45344 18.8704 8.46714 18.8743 8.47674 18.8743C8.4729 18.8607 8.47289 18.8315 8.54866 18.8219C8.58511 18.8164 8.62048 18.8052 8.65349 18.7888C8.65349 18.7888 8.58155 18.785 8.49987 18.7073C8.41818 18.6297 8.35032 18.5676 8.30373 18.5579C8.25521 18.5482 8.16396 18.591 8.10764 18.587C8.02994 18.5774 7.99691 18.5385 7.99691 18.5385C7.99691 18.5385 7.73874 18.5619 7.16584 18.2126C6.67053 17.9098 6.45491 17.6419 6.45491 17.6419C6.40856 17.6251 6.36375 17.6043 6.321 17.5797C6.13461 17.4828 5.87625 17.2809 5.88399 17.0167L5.88296 17.0186Z" fill="#C2A44D"/>
<path fill-rule="evenodd" clip-rule="evenodd" d="M13.0234 5.3623C13.0683 5.37688 13.1082 5.40379 13.1386 5.43997C13.2299 5.54477 13.2882 5.74277 13.0805 5.95454C13.1621 5.98358 13.1957 5.99291 13.2669 5.98355C13.1951 6.06907 13.0321 6.25164 13.0224 6.41088C13.0127 6.54093 13.0942 6.57982 13.0942 6.57982C13.0942 6.57982 12.97 6.72347 12.9643 6.96385C13.023 6.89765 13.0872 6.83657 13.1563 6.78127C13.3 6.66667 13.4979 6.53657 13.6319 6.455C13.6301 6.48918 13.6347 6.52339 13.6455 6.55586C13.6455 6.55586 13.8958 6.34997 14.1063 6.44131C14.2014 6.48403 14.1587 6.61793 14.1587 6.61793C14.1587 6.61793 14.2889 6.56939 14.3802 6.66062C14.4714 6.75186 14.6005 6.98722 14.6667 7.07847C14.6958 7.12121 14.7716 7.20273 14.8492 7.32891C14.9552 7.50558 15.0438 7.69217 15.1135 7.88603C15.1174 7.78503 15.1425 7.62784 15.43 7.72671C15.7174 7.82763 16.0436 8.03925 16.3175 8.45607C16.5914 8.87289 16.6594 9.34353 16.7973 9.5227C16.9371 9.69546 17.081 9.98278 17.0907 10.1032C17.1005 10.2237 17.0481 10.6119 17.3357 11.6623C17.4172 11.3362 17.5413 10.6118 17.5413 10.6118L17.6091 9.97291L17.6862 7.99619L15.6217 6.28192L14.0078 5.11141L12.9573 5.21269L13.0233 5.36217L13.0234 5.3623Z" fill="#CAA13E"/>
<path fill-rule="evenodd" clip-rule="evenodd" d="M16.8593 8.30294C16.8593 8.30294 16.8301 8.11094 16.3446 7.78467C15.859 7.4625 15.4804 7.4626 15.1309 7.1889C14.8628 6.97342 14.5831 6.47827 14.401 6.31524C14.2242 6.15414 14.195 5.6881 14.195 5.6881L14.791 5.18874L15.6772 3.90709L16.4264 3.08168L16.7857 3.58078L17.2851 4.16701L17.563 5.34364L17.6645 7.06598L16.8584 8.30306L16.8593 8.30294Z" fill="#B59544"/>
<path fill-rule="evenodd" clip-rule="evenodd" d="M17.4598 10.3673C17.4745 10.1061 17.4421 9.84436 17.3644 9.59457C17.2363 9.19652 16.9564 8.48978 16.8264 8.22511C16.7739 7.93188 16.8128 7.90857 16.8691 7.87553C16.9254 7.84249 17.1371 7.72186 17.2529 7.29879C17.3688 6.87572 17.7286 6.8618 17.7286 6.8618L17.9499 6.69867L18.2861 7.53928L18.5794 8.2985L18.6708 8.87908L18.7389 9.37417L18.58 10.4209L17.7939 11.1317L17.4597 10.3673L17.4598 10.3673Z" fill="#C89D3A"/>
<path fill-rule="evenodd" clip-rule="evenodd" d="M6.49028 22.0361L6.49027 22.0146C6.50661 22.0043 6.52103 21.9913 6.53288 21.9761C6.54645 21.9567 6.5563 21.9334 6.56589 21.9276C6.58535 21.9179 6.6766 21.8892 6.72512 21.8984C6.77363 21.9076 6.9019 21.9604 6.96987 21.9566C7.10964 21.9527 7.27269 21.8458 7.53101 21.8943C7.91938 21.966 8.01071 22.2301 8.23603 22.3795C8.38966 22.4844 8.54862 22.4377 8.57192 22.4377L8.62427 22.4377C8.634 22.4377 8.70579 22.3561 8.7447 22.3601C8.8224 22.3639 8.83009 22.428 8.87861 22.4318C8.99317 22.4454 9.21459 22.3735 9.32532 22.4027C9.35815 22.4129 9.38801 22.431 9.41236 22.4553C9.4367 22.4796 9.45481 22.5095 9.46513 22.5423C9.48845 22.6141 9.46901 22.7053 9.41271 22.7578C9.29242 22.8685 9.17789 22.9735 9.15462 23.0651C9.18425 23.0877 9.21271 23.1118 9.23988 23.1373C8.27907 22.8928 7.35461 22.5229 6.49028 22.0372L6.49028 22.0361Z" fill="#CEB052"/>
<path fill-rule="evenodd" clip-rule="evenodd" d="M16.8289 18.1535C16.8289 18.1535 17.1316 17.7496 17.2366 17.5495C17.3413 17.3432 16.9038 14.7322 16.9038 14.7322L17.7807 11.8563L17.757 10.9203C17.757 10.9203 17.7995 10.0562 17.9004 9.68139C18.0209 9.89691 18.3958 10.157 18.4774 10.2949C18.5157 10.0307 18.646 9.47345 18.6265 8.87928C18.6983 8.98985 18.8714 10.1025 18.8714 10.1025L19.0444 10.8519L19.2699 11.648L19.5206 12.4888L19.6703 13.0693L19.7557 13.2091L19.8277 13.4537L19.8957 13.7178L20.092 14.3372L20.2073 14.8458L20.2989 15.7682C20.3187 15.8388 20.333 15.9109 20.3417 15.9837C20.3455 16.0847 20.3281 16.1429 20.3281 16.1605C20.3281 16.178 20.3612 16.3818 20.3477 16.5353C20.3283 16.6889 20.3283 16.8091 20.2079 16.9193C20.0875 17.0295 20.012 17.6883 20.012 17.6883L19.7964 17.5447C19.7964 17.5447 19.8391 17.3485 19.7381 17.1699C19.637 16.9914 19.4409 16.9545 19.3302 16.9837C19.2196 17.007 18.9983 17.0419 18.9264 17.1041C18.8585 17.1662 18.6916 17.3585 18.5382 17.446C18.3462 17.5612 18.0334 17.5704 17.8665 17.6092C17.6975 17.6477 17.5112 17.7629 17.315 17.8967C17.1612 17.9964 16.9987 18.0821 16.8297 18.1528L16.8289 18.1535Z" fill="#CCA847"/>
<path fill-rule="evenodd" clip-rule="evenodd" d="M16.8299 22.3962C16.8299 22.3962 16.8427 22.4045 16.8675 22.4181C18.2468 21.7714 19.4826 20.8549 20.5019 19.7227C20.4907 19.3297 20.4761 18.9269 20.4602 18.7777C20.4272 18.4611 20.4504 18.1388 20.4407 17.9525C20.4309 17.7661 20.3258 17.0068 20.2773 16.8108C20.2247 16.6147 20.1236 16.5175 20.1082 16.5176C20.0947 16.5215 20.0131 16.8866 20.0131 16.9784C20.0132 17.0702 19.9938 17.2911 19.9938 17.3474C19.9802 17.3434 19.9744 17.309 19.9744 17.2949C19.955 17.3434 19.9317 17.429 19.922 17.4387C19.9123 17.4484 19.9355 17.3571 19.922 17.3377C19.9084 17.3182 19.8836 17.328 19.8889 17.2795C19.8912 17.2507 19.8957 17.2222 19.9025 17.1941C19.9025 17.1941 19.8443 17.2795 19.8017 17.497C19.759 17.7125 19.759 17.7184 19.7435 17.7377C19.73 17.7612 19.6523 17.8388 19.6483 17.8679C19.6445 17.9203 19.7203 17.9728 19.726 18.0018C19.7299 18.0505 19.6582 18.2756 19.6349 18.3858C19.6116 18.4961 19.6214 18.712 19.5966 18.8227C19.5772 18.9237 19.5582 18.982 19.4918 19.0246C19.5403 19.0343 19.5869 19.0479 19.5869 19.0479C19.5869 19.0479 19.655 19.3352 19.4822 19.58C19.4202 19.6654 19.4047 19.7043 19.3387 19.782C19.2085 19.9257 19.1076 20.0893 19.0979 20.1956C19.0912 20.1643 19.0866 20.1324 19.0843 20.1004C19.0843 20.1004 18.8825 20.3355 18.797 20.4695C18.6865 20.6423 18.533 20.6327 18.4899 20.6754C18.4468 20.7182 18.4375 20.7958 18.4515 20.858C18.4132 20.8676 18.341 20.8813 18.2924 21.0308C18.2691 21.1084 18.2109 21.1844 18.1196 21.2367C18.0284 21.2889 17.9177 21.3047 17.8613 21.3183C17.9099 21.3318 17.9293 21.3318 17.9526 21.3473C17.9236 21.3958 17.7896 21.4716 17.6401 21.5688C17.4906 21.6601 17.4187 21.7941 17.3819 21.8815C17.3435 21.963 17.2868 22.0155 17.1955 22.0253C17.2339 22.0486 17.2908 22.1028 17.3199 22.1203C17.2771 22.1301 17.2047 22.1301 17.0753 22.2409C16.9394 22.3535 16.8928 22.3866 16.8306 22.3963L16.8299 22.3962Z" fill="#C39D3C"/>
<path fill-rule="evenodd" clip-rule="evenodd" d="M14.1284 23.2968C14.2028 23.2446 14.2833 23.2019 14.3681 23.1696C14.671 23.0492 14.9913 23.0258 15.1175 22.987C15.238 22.9486 15.3331 22.8956 15.4826 22.8665C15.4786 22.9005 15.4753 22.9325 15.4717 22.9627C15.031 23.1014 14.5822 23.213 14.1278 23.2968L14.1284 23.2968Z" fill="#D2BA6B"/>
<path fill-rule="evenodd" clip-rule="evenodd" d="M19.7123 15.3295C19.7123 15.3295 19.6503 15.6654 19.5396 15.8771C19.429 16.0889 19.3094 16.382 19.3094 16.382C19.3101 16.316 19.3179 16.2502 19.3326 16.1858C19.1929 16.2673 18.8531 16.4637 18.7567 16.551C18.6655 16.6325 18.512 16.7763 18.4733 16.8443C18.5645 16.5764 18.6595 16.3356 18.6751 16.2249C18.5353 16.3259 17.8829 16.8639 17.5433 17.2193L16.4853 18.0759C16.3631 18.1419 16.2374 18.2008 16.1086 18.2524C15.9262 18.3301 15.7107 18.3962 15.5515 18.4584C15.5942 18.3438 15.662 18.2427 15.7572 18.1456C15.8582 18.0505 16.1609 17.7222 16.2075 17.5695C16.2502 17.4103 16.2599 17.3152 16.2035 17.1812C16.1511 17.1948 16.0307 17.2007 15.9492 17.224C15.8677 17.2473 15.7803 17.3346 15.7803 17.3346C15.7803 17.3346 15.8423 16.9793 15.9762 16.6434C15.8752 16.6472 15.7024 16.6764 15.7024 16.6764C15.7024 16.6764 15.9431 16.2724 16.355 15.9909C16.2288 16.0178 16.1054 16.0561 15.9862 16.1054C15.7454 16.2065 15.4814 16.356 15.2853 16.4376C15.3959 16.284 16.1723 15.1753 16.6342 14.1421C17.0947 13.1109 17.2668 12.8468 17.3677 12.2934C17.4199 12.0196 17.4059 11.615 17.4197 11.2527C17.4332 10.8934 17.4778 10.571 17.4487 10.3555C17.569 10.505 18.0197 10.9262 18.0355 11.868C18.0493 12.8097 17.6051 14.0818 17.1333 14.7672C17.2485 14.8002 17.547 14.8391 17.8536 14.3062C18.1601 13.7734 18.1564 13.6247 18.267 13.4032C18.2806 13.5139 18.2767 13.5527 18.2767 13.5527C18.2767 13.5527 18.7233 13.0109 18.9347 12.3292C18.9775 12.6225 19.1038 12.8808 18.9058 13.4187C18.7293 13.9041 18.4982 14.0227 18.4982 14.0227C18.4982 14.0227 18.6128 14.0032 18.7816 13.9021C18.8108 13.9739 18.8051 14.0557 18.8536 14.0847C18.9021 14.1136 18.9682 14.1623 18.9779 14.2089C19.0302 14.1312 19.1117 14.0321 19.1371 13.9584C19.1177 14.112 19.1043 14.7836 19.1758 15.1253C19.3254 15.1117 19.4788 15.102 19.5835 14.832C19.5118 15.0962 19.5118 15.2553 19.5604 15.4806C19.64 15.4263 19.7118 15.3291 19.7118 15.3291L19.7123 15.3295Z" fill="#C0993A"/>
<path fill-rule="evenodd" clip-rule="evenodd" d="M14.664 4.62791C14.664 4.62791 14.5145 4.69003 14.2602 4.69009C14.0389 4.69015 14.1009 4.60476 13.7553 4.60485C13.2234 4.605 11.3651 4.91269 11.0389 4.90843C10.8272 4.90465 11.7534 4.9995 11.7534 4.9995L14.1205 5.03189L14.5961 4.99336L14.7728 4.63364L14.664 4.62791Z" fill="#A88F33"/>
<path fill-rule="evenodd" clip-rule="evenodd" d="M8.52762 9.25666C8.52762 9.25666 8.2247 9.48778 8.09662 9.66458C7.96854 9.84138 7.90061 9.95775 7.75498 10.1015C7.78917 10.1028 7.82334 10.0982 7.85597 10.0879C7.85597 10.0879 7.85598 10.1263 7.83269 10.1365C7.85282 10.1342 7.8732 10.1365 7.89233 10.1431C7.91147 10.1498 7.92888 10.1606 7.94329 10.1748C7.90054 10.1981 7.78409 10.3148 7.87539 10.4526C7.94339 10.5574 8.08714 10.567 8.08714 10.567C8.08714 10.567 8.05414 10.6622 8.19199 10.6525C8.48908 10.6388 8.82107 10.5085 8.97443 10.5415C9.12804 10.5799 9.21534 10.5939 9.32406 10.7823C9.43931 10.9687 9.53967 10.9978 9.53967 10.9978C9.53967 10.9978 9.60759 10.8249 9.59203 10.5667C9.64772 10.4275 9.67857 10.2797 9.68318 10.1298L9.58199 9.38617L9.14113 8.82897L8.57034 9.14567L8.52762 9.25627L8.52762 9.25666Z" fill="#E3C571"/>
<path fill-rule="evenodd" clip-rule="evenodd" d="M9.06915 9.14587C9.06915 9.14587 9.11193 9.24685 9.29062 9.2564C9.27118 9.29915 9.27118 9.30504 9.27707 9.33794C9.28092 9.37096 9.2867 9.41947 9.2867 9.41947C9.30637 9.40995 9.32414 9.39693 9.33916 9.38106C9.3489 9.42381 9.32947 9.49165 9.33921 9.54029C9.34522 9.56987 9.35499 9.59856 9.36829 9.62566C9.37112 9.61902 9.37437 9.61256 9.37801 9.60633C9.38185 9.5966 9.41644 9.71115 9.51208 9.79829C9.51199 9.78489 9.51529 9.77168 9.52167 9.75989C9.52314 9.78424 9.5312 9.80773 9.54498 9.82785C9.53782 9.82444 9.53129 9.81986 9.52565 9.81429C9.52565 9.81429 9.53533 10.1215 9.58785 10.2803C9.59662 10.2701 9.60442 10.259 9.61114 10.2473C9.61114 10.2377 9.60732 10.3328 9.59762 10.4009C9.58407 10.4689 9.59382 10.564 9.59382 10.564C9.62882 10.5364 9.66729 10.5135 9.70823 10.496C9.76647 10.4725 9.86181 10.4007 9.91988 10.2414C9.95356 10.1513 9.97953 10.0584 9.9975 9.96379C10.0163 9.99993 10.0293 10.0388 10.0359 10.079C10.0399 10.1275 10.1312 10.1023 10.1312 10.1023L10.1506 9.89053L10.2656 9.41089L10.3704 9.11377L10.875 8.32733L11.7869 7.62462L12.5832 7.80694L13.2547 6.89412L12.0972 6.19926L11.0021 6.31411L10.0085 7.69102L9.21284 8.93987L9.06915 9.14574L9.06915 9.14587Z" fill="#D8B65B"/>
<path fill-rule="evenodd" clip-rule="evenodd" d="M14.8046 7.1521C14.8046 7.1521 14.7367 7.16568 14.5406 7.26737C14.3445 7.36905 14.2086 7.40135 14.1329 7.55087C14.0571 7.70039 14.0514 7.81892 14.0514 7.81892C14.0514 7.81892 14.1854 7.76065 14.2631 7.74117C14.3446 7.72182 14.4359 7.72756 14.4262 7.76058C14.4168 7.78323 14.4039 7.8042 14.3878 7.82267C14.3878 7.82267 14.5414 7.81879 14.5373 7.89457C14.5332 7.97035 14.5083 8.05381 14.4793 8.09068C14.4501 8.12909 14.3298 8.18595 14.3162 8.23063C14.2832 8.3219 14.3298 8.32573 14.3123 8.39946C14.2988 8.4714 14.2348 8.61119 14.0251 8.85586C13.8096 9.10065 13.718 9.27348 13.718 9.27348C13.718 9.27348 13.6131 9.07741 13.5586 8.90846C13.5203 8.9278 13.3141 9.04242 13.3141 9.04242L12.8359 7.37855L12.8455 7.26782C12.8455 7.26782 12.8882 7.21546 12.8979 7.1183C12.8261 7.09503 12.8164 7.07557 12.7211 6.98446C12.6259 6.89335 12.5483 6.78253 12.3892 6.70679C12.3659 6.66405 12.3367 6.60594 12.2202 6.58255C12.1037 6.55916 12.0338 6.53998 12.0338 6.53998C12.0338 6.53998 12.0959 6.51654 12.125 6.46802C12.0531 6.47776 11.995 6.50108 11.8377 6.49728C11.6784 6.49335 11.6609 6.4876 11.5736 6.50119C11.4863 6.51478 11.3816 6.55372 11.3426 6.41971C11.2998 6.3867 11.2085 6.41591 11.1309 6.53036C11.0532 6.64482 11.0261 6.73622 10.8766 6.78093C10.8661 6.84683 10.8431 6.91011 10.8087 6.96731C10.766 7.03926 10.698 7.11109 10.6068 7.21786C10.4631 7.38686 10.4864 7.66449 10.2574 7.87626C10.0264 8.08791 10.2956 7.28976 10.2956 7.28976L10.6643 6.40646L11.7145 5.37897L13.3456 5.26794L13.505 6.1127L14.3013 6.38628L14.8044 7.15312L14.8046 7.1521Z" fill="#D3AE4D"/>
<path fill-rule="evenodd" clip-rule="evenodd" d="M15.063 7.33839L14.3773 6.35029L13.8976 5.9814C13.8976 5.9814 13.5556 5.3525 13.5323 5.33305C13.5129 5.31948 13.1906 5.28463 12.9847 5.27111L13.0232 5.36621C13.0681 5.38079 13.108 5.4077 13.1384 5.44387C13.2297 5.54868 13.288 5.74668 13.0803 5.95845C13.1618 5.98748 13.1955 5.99682 13.2667 5.98745C13.1949 6.07298 13.0319 6.25555 13.0222 6.41478C13.0125 6.54483 13.094 6.5836 13.094 6.5836C13.094 6.5836 12.9698 6.72737 12.9641 6.96763C13.0228 6.90142 13.087 6.84034 13.156 6.78505C13.2997 6.66981 13.4977 6.54022 13.6317 6.45865C13.6299 6.49287 13.6345 6.52712 13.6453 6.55964C13.6453 6.55964 13.8956 6.35375 14.1061 6.44496C14.2012 6.48768 14.1585 6.62171 14.1585 6.62171C14.1585 6.62171 14.2886 6.57316 14.3799 6.6644C14.4712 6.75564 14.6013 6.99049 14.6674 7.08186C14.6965 7.12461 14.7723 7.20612 14.8499 7.33218C14.9559 7.50888 15.0444 7.69551 15.1142 7.88942C15.118 7.81172 15.1336 7.70305 15.2678 7.70301L15.0638 7.33801L15.063 7.33839Z" fill="#CAA13E"/>
<path fill-rule="evenodd" clip-rule="evenodd" d="M4.788 10.149C4.788 10.149 4.73945 10.0285 4.7879 9.79365C4.83635 9.55876 4.9121 9.44802 4.93722 9.10241C4.96234 8.7568 5.18751 8.32564 5.18751 8.32564L5.81066 8.04208L6.25153 8.16228L6.38173 8.75258L5.8245 9.05993C5.8245 9.05993 5.79548 9.18999 5.6382 9.29486C5.48091 9.39973 5.26346 9.48133 5.21114 9.58822C5.17986 9.65368 5.15704 9.72285 5.14323 9.79407C5.14323 9.79407 4.98399 9.76108 4.88891 9.86594C4.78795 9.97285 4.79181 10.068 4.788 10.1495L4.788 10.149Z" fill="#F4EFC8"/>
<path fill-rule="evenodd" clip-rule="evenodd" d="M6.04615 9.99133C6.04615 9.99133 5.99368 10.0244 5.95492 10.1066C5.9165 10.0445 5.82463 9.67549 5.8207 9.34346C5.81677 9.01143 5.79691 8.92913 5.87367 8.81467C5.95044 8.70022 6.2516 8.57956 6.20879 8.3735C6.16598 8.17741 5.98727 8.09592 5.7679 8.1523C5.61431 8.19074 5.50009 8.51743 5.3409 8.68054C5.22049 8.80486 5.07687 8.78545 5.0381 8.85343C4.98565 8.9447 5.03418 9.03596 5.01871 9.0942C5.01475 9.11366 4.96626 9.2185 4.87887 9.34473C4.7023 9.59912 4.40339 9.95849 4.36456 10.2808C4.37808 10.0983 4.36848 10.0944 4.41694 9.89244L4.38774 9.84394L4.57957 9.21477L4.70372 8.69633L4.98125 7.82816L5.47023 6.94073L5.94586 6.40851L6.44097 6.4414L6.49941 7.18507L6.78331 8.58121L7.3796 9.31501L6.42438 9.95821L6.04577 9.99133L6.04615 9.99133Z" fill="#EBCC73"/>
<path fill-rule="evenodd" clip-rule="evenodd" d="M6.34325 10.255C6.34325 10.255 6.26172 10.2745 6.23253 10.259C6.20334 10.2435 6.17441 10.226 6.18401 10.2065C6.1936 10.1871 6.24607 10.1542 6.24607 10.1386C6.24714 10.1244 6.24267 10.1105 6.23361 10.0996C6.22455 10.0887 6.21161 10.0818 6.19754 10.0803C6.15287 10.0746 6.13931 10.1036 6.13931 10.1036C6.13931 10.1036 6.09655 10.0708 6.06173 10.0653C6.08233 10.0627 6.10305 10.0614 6.12381 10.0613C6.07014 10.037 6.01322 10.0207 5.95483 10.0128C6.00334 9.98374 6.09855 9.89822 6.16063 9.8982C6.22271 9.89818 6.26162 9.88857 6.25188 9.85555C6.24214 9.82253 6.19362 9.77403 6.14126 9.75459C6.16058 9.73129 6.17427 9.69634 6.12765 9.60099C6.07899 9.5059 6.09842 9.44177 6.11403 9.4186C6.12759 9.38941 6.17609 9.33704 6.19938 9.30401C6.22267 9.27098 6.24211 9.2263 6.28089 9.203C6.30034 9.18942 6.36241 9.16458 6.42462 9.14088C6.49258 9.11757 6.54889 9.08837 6.58768 9.11754C6.63044 9.14658 6.61099 9.1855 6.61099 9.1855C6.61099 9.1855 6.745 9.13683 6.86533 9.199C6.9858 9.25708 7.27906 9.29399 7.27906 9.29399L7.3842 9.50568L6.68919 10.102L6.40187 10.2458L6.34363 10.2554L6.34325 10.255Z" fill="#E5C66B"/>
<path fill-rule="evenodd" clip-rule="evenodd" d="M7.308 9.28028C7.308 9.28028 7.09249 9.42409 7.04399 9.47645C7.07305 9.48041 7.12156 9.49985 7.10212 9.52892C7.07883 9.55798 6.93908 9.65901 6.86141 9.75426C6.7799 9.84939 6.70223 9.96986 6.67511 10.0281C6.64607 10.0805 6.42467 10.234 6.34903 10.2533C6.50826 10.2533 6.82859 10.0571 6.94891 10.0571C6.94509 10.1153 6.98197 10.1814 7.04994 10.1871C7.11791 10.1928 7.31402 10.2298 7.57804 10.0666C7.84206 9.90734 7.75473 9.78884 7.8653 9.71124C8.07698 9.57128 8.16232 9.44697 8.27878 9.36937C8.39524 9.29177 8.45552 9.27409 8.45552 9.27409C8.45552 9.27409 8.45934 9.21585 8.49391 9.22173C8.50336 9.22281 8.51235 9.22646 8.51989 9.23227C8.52742 9.23809 8.53322 9.24586 8.53667 9.25474C8.53667 9.25474 8.73861 9.11094 8.99742 9.07209C8.99138 9.06939 8.98655 9.06456 8.98384 9.05852C8.98384 9.05852 9.00317 9.04879 9.00714 9.03906C9.00714 9.03906 9.0207 9.0196 9.03043 9.02933C9.04016 9.03905 9.05375 9.11086 9.07321 9.14003C9.11596 9.12057 9.19744 8.93802 9.19744 8.93802L9.39352 8.37681L9.39338 7.86417L9.23979 7.8934L8.08792 8.38292L7.38898 9.10746L7.30749 9.28028L7.308 9.28028Z" fill="#E6BD62"/>
<path fill-rule="evenodd" clip-rule="evenodd" d="M10.6238 6.76489C10.6861 6.74976 10.7459 6.7255 10.8011 6.69291C10.7778 6.75512 10.7778 6.82309 10.6769 6.9707C10.5759 7.11831 10.5721 7.13969 10.4906 7.29306C10.4091 7.45231 10.3994 7.68143 10.3218 7.78232C10.3566 7.76539 10.3939 7.75426 10.4324 7.74939C10.4324 7.74939 10.3548 7.81738 10.3218 7.8892C10.2888 7.96101 10.2306 8.11053 10.087 8.20196C9.94342 8.29339 9.76078 8.35156 9.56474 8.56716C9.36857 8.7788 9.16679 9.04688 9.06569 9.14329C9.11815 9.05202 9.18991 8.86947 9.20933 8.74914C9.22875 8.62882 9.20529 8.48495 9.23827 8.32584C9.27125 8.16673 9.27122 8.05204 9.43012 7.77424C9.58903 7.49643 9.8609 6.53137 9.8609 6.53137L10.4472 6.34484L10.6241 6.76425L10.6238 6.76489Z" fill="#B6933F"/>
<path fill-rule="evenodd" clip-rule="evenodd" d="M10.2005 6.40971C10.2005 6.40971 10.0239 6.66409 9.97546 6.88939C9.92701 7.11468 9.97155 7.09521 9.94253 7.20594C9.92516 7.27345 9.92518 7.34426 9.94258 7.41176C10.0037 7.31319 10.0875 7.23059 10.1869 7.1708C10.3539 7.06989 10.4898 6.99792 10.5708 6.91252C10.6523 6.82124 10.7202 6.67171 10.8968 6.55711C10.825 6.5474 10.724 6.5144 10.7048 6.51876C10.7768 6.4372 10.9921 6.31286 11.2096 6.16329C11.4251 6.00964 11.4115 5.94769 11.761 5.79425C11.6465 5.81374 11.5921 5.78457 11.4968 5.79432C11.5352 5.71277 11.6696 5.67383 11.804 5.5399C11.9383 5.40598 11.7185 5.20789 11.7185 5.20789L10.6947 5.82756L10.1997 6.41022L10.2005 6.40971Z" fill="#C49937"/>
<path fill-rule="evenodd" clip-rule="evenodd" d="M7.4217 5.94819L7.44494 5.76181L7.73806 5.29185L8.04466 4.46655L8.04435 3.33836L8.02088 2.68595L8.06928 2.25867L8.10611 2.12285L8.14501 2.07036L8.39541 2.20034L8.74126 2.67014L8.77453 3.57701L8.43891 5.00814L7.47996 6.05505L7.4217 5.94819Z" fill="#DFC068"/>
<path fill-rule="evenodd" clip-rule="evenodd" d="M8.18382 2.01794C8.18382 2.01794 8.03022 2.02195 7.99762 2.66081C7.96503 3.29967 7.94925 3.63554 7.92603 3.95209C7.90282 4.26864 7.8486 4.46078 7.82139 4.64729C7.79418 4.83379 7.77876 5.088 7.6915 5.24342C7.65312 5.31524 7.57113 5.54054 7.37892 5.70955C7.16342 5.89598 6.84141 6.02624 6.79264 6.03598C6.70714 6.05533 6.27413 6.0982 6.09752 6.1954C6.03545 6.22844 5.92858 6.26725 5.81021 6.378C5.57525 6.58965 5.26278 6.96836 5.03762 7.42474C4.69221 8.10643 4.34712 10.0307 4.34712 10.0307L4.42478 9.90068C4.42478 9.90068 4.43447 9.72788 4.60718 9.42485C4.77606 9.12196 4.72746 8.78213 4.96218 8.20146C5.05339 7.98013 5.16787 7.69274 5.30758 7.44796C5.52891 7.04982 5.79673 6.70799 6.06663 6.52155C6.50725 6.21858 6.99274 6.15241 6.99274 6.15241L7.51501 5.80667C7.51501 5.80667 7.60623 5.63 7.72662 5.42799C7.89538 5.14455 8.11046 4.82795 8.15731 4.36777C8.22907 3.68615 8.05602 3.23961 8.06564 2.83577C8.07526 2.43192 8.07902 2.13483 8.16066 2.06288C8.24231 1.99092 8.18395 2.0182 8.18395 2.0182L8.18382 2.01794Z" fill="#A88F33"/>
<path fill-rule="evenodd" clip-rule="evenodd" d="M8.18467 5.06651C8.18467 5.06651 8.41492 4.4994 8.52026 3.99646C8.53969 3.89547 8.57844 3.79459 8.58815 3.71305C8.63653 3.23727 8.65005 3.04117 8.5879 2.78096C8.53934 2.58897 8.35292 2.41597 8.25573 2.28185C8.16059 2.14197 8.11591 2.08988 8.13535 2.06044C8.1548 2.03099 8.23044 1.98285 8.30417 1.98859C8.38254 1.99085 8.45963 2.00902 8.53076 2.04201C8.60189 2.075 8.66556 2.12211 8.71792 2.18048C8.86747 2.35323 8.98602 2.9397 8.98602 2.9397L9.11077 3.71355L9.42758 4.68819L8.18493 5.06727L8.18467 5.06651Z" fill="#C99E3D"/>
<path fill-rule="evenodd" clip-rule="evenodd" d="M10.3494 4.47569C10.3494 4.47569 10.3066 4.49503 10.2291 4.47572C10.2324 4.50742 10.2269 4.53941 10.2132 4.56819C10.1995 4.59697 10.1781 4.6214 10.1514 4.63881C10.0699 4.60581 9.30663 4.67206 9.30663 4.67206C9.30663 4.67206 8.95128 4.60995 8.84044 4.14009C8.76278 3.82741 8.89848 3.3964 8.85373 3.11289C8.78565 2.69537 8.69052 2.61373 8.68076 2.48381C8.671 2.3539 8.66126 2.32075 8.66124 2.23921C8.61848 2.22949 8.59326 2.21593 8.55064 2.21595C8.5409 2.17755 8.56022 2.14401 8.51758 2.07605C8.54088 2.08577 8.70011 2.10518 8.88653 2.28177C9.04017 2.42548 9.04018 2.47783 9.06336 2.50701C9.09242 2.53606 9.32748 2.73734 9.42853 2.93801C9.52957 3.13869 9.72584 3.77864 9.77054 3.88346C9.78412 3.92621 9.81332 3.96895 9.88579 4.06595C9.99847 4.20583 10.1635 4.43708 10.3499 4.47543L10.3494 4.47569Z" fill="#B58634"/>
<path fill-rule="evenodd" clip-rule="evenodd" d="M9.09082 2.51672C9.2085 2.70671 9.31423 2.90384 9.4074 3.10697C9.52202 3.36512 9.59005 3.57681 9.73384 3.74957C9.65608 3.52444 9.51811 3.08173 9.43653 2.92444C9.34522 2.75806 9.15881 2.57891 9.09082 2.51685L9.09082 2.51672Z" fill="#A88F33"/>
<path fill-rule="evenodd" clip-rule="evenodd" d="M7.77126 5.70943C7.77126 5.70943 7.57518 5.758 7.21018 5.95035C7.08974 6.01246 6.97533 6.06485 6.86462 6.11352C6.57704 6.24364 6.26859 6.36392 6.02387 6.43029C6.04334 6.45358 6.05294 6.46317 6.05294 6.46317C6.05294 6.46317 6.05296 6.55841 6.10546 6.61266C6.07641 6.64186 5.688 6.90602 5.80293 7.78945C5.88049 7.76037 5.97174 7.72144 5.98531 7.72143C6.00873 7.72539 6.01451 7.78939 6.04357 7.78938C6.07262 7.78938 6.16784 7.75095 6.2688 7.62036C6.26497 7.67284 6.20688 8.20099 6.51955 8.55623C6.57777 8.48825 6.72529 8.26293 6.72529 8.26293L6.72911 8.19112C6.72911 8.19112 6.74261 7.94062 6.82422 7.71148C6.90582 7.48234 7.06488 7.31333 7.06488 7.31333L7.89541 6.12668L7.77101 5.7093L7.77126 5.70943Z" fill="#E6C367"/>
<path fill-rule="evenodd" clip-rule="evenodd" d="M6.99507 7.45164C6.95704 7.47853 6.91514 7.49947 6.8708 7.51375C6.85722 7.46525 6.83772 7.29821 6.95223 7.13511C7.0862 6.93885 7.37925 6.68443 7.46073 6.48217C7.51318 6.35198 7.48979 6.02584 7.95573 5.60818C8.42166 5.19052 8.60403 5.04686 8.60403 5.04686L9.35733 4.66803L10.2836 5.03284L9.82396 6.83648L9.46694 7.68138L8.04607 7.41386L6.99494 7.45164L6.99507 7.45164Z" fill="#DCBA5A"/>
<path fill-rule="evenodd" clip-rule="evenodd" d="M7.5372 6.96175L7.71391 6.74039L7.71387 6.58307C7.71387 6.58307 7.90995 6.53054 8.12148 6.31493C8.333 6.09932 8.62614 5.68568 8.88445 5.71082C9.14276 5.73994 9.16812 6.2719 9.17789 6.42153C9.18766 6.57116 9.22077 6.91073 9.27317 7.09338C9.33146 7.27589 8.64429 7.96727 8.64429 7.96727L8.17757 8.32273L7.5372 6.96175Z" fill="#E9CE77"/>
<path fill-rule="evenodd" clip-rule="evenodd" d="M8.08475 8.80435C8.08475 8.80435 8.22843 8.57903 8.12307 8.53055C8.18511 8.39076 8.29963 8.24314 8.29963 8.24314C8.29963 8.24314 8.38112 8.04126 8.64511 7.79262C8.90911 7.54397 9.07227 7.37881 9.11497 7.21188C9.1413 7.1031 9.15561 6.99175 9.15764 6.87984C9.18619 6.90315 9.21673 6.92392 9.24892 6.94189C9.29167 6.96134 9.49358 7.1282 9.46461 7.4642C9.43564 7.80021 9.31114 7.94002 9.31114 7.94002C9.31114 7.94002 9.19085 8.06037 9.10549 8.12261C9.01411 8.18471 8.98124 8.25653 8.82777 8.26246C8.84354 8.24991 8.86127 8.24005 8.88024 8.23326C8.88024 8.23326 8.721 8.21397 8.63552 8.29156C8.55004 8.36915 8.36834 8.60818 8.2771 8.68014C8.18585 8.7384 8.08513 8.80448 8.08513 8.80448L8.08475 8.80435Z" fill="#CDAE50"/>
<path fill-rule="evenodd" clip-rule="evenodd" d="M14.5399 5.02578C14.3105 4.94224 14.0694 4.89514 13.8254 4.8862C13.4175 4.87274 12.8215 4.8962 12.237 4.90019C11.6079 4.9042 11.037 4.68496 10.2448 4.64639C10.1147 4.56873 9.78384 4.22898 8.75159 4.94964C8.81366 4.94579 9.50111 4.79021 9.73991 5.08928C9.98076 5.3863 9.91293 5.89115 9.88006 6.01148C9.81793 6.27953 9.61605 6.66986 9.53471 6.94367C9.45338 7.21749 9.47262 7.36135 9.41443 7.55337C9.35624 7.74538 9.22814 7.84078 9.30385 8.06207C9.40482 7.99996 9.45743 7.99995 9.62603 7.62128C9.79463 7.24261 9.75987 6.97267 10.0395 6.65221C10.3132 6.32983 10.7689 5.88888 10.9421 5.77811C11.1154 5.66734 12.4914 4.95248 13.9324 5.63369C14.28 5.59673 14.54 5.02566 14.54 5.02566L14.5399 5.02578Z" fill="#D2A83E"/>
<path fill-rule="evenodd" clip-rule="evenodd" d="M9.33208 4.76301C9.33065 4.74842 9.32742 4.73406 9.32247 4.72026C9.30899 4.69187 9.29128 4.66568 9.26997 4.64258C9.26997 4.64258 8.92819 4.58059 8.7554 4.59997C8.45243 4.63307 8.17874 5.00793 8.05066 5.20022C7.92259 5.39251 7.76343 5.68951 7.59067 5.84303C7.59256 5.82808 7.58911 5.81294 7.58093 5.80028C7.58093 5.80028 7.59067 5.81385 7.57134 5.83331C7.55202 5.85277 7.55189 5.86237 7.56163 5.87171L7.59082 5.90076C7.60042 5.90076 7.86842 5.78024 8.23338 5.43979C8.62164 5.08435 8.91868 4.902 9.07405 4.8395C9.15691 4.80426 9.24353 4.7786 9.33221 4.76301L9.33208 4.76301Z" fill="#C29637"/>
<path fill-rule="evenodd" clip-rule="evenodd" d="M15.9609 3.30132C15.9609 3.30132 15.8987 3.3789 15.821 3.46443C15.6483 3.647 15.4231 3.85276 15.2309 4.06452C15.0485 4.26655 14.8427 4.42392 14.6116 4.68805C14.3805 4.95217 14.1126 5.24536 14.0448 5.33089C13.9827 5.41641 13.9342 5.5562 13.9343 5.628C13.9012 5.60472 13.8624 5.57951 13.8624 5.57951C13.8788 5.60999 13.8983 5.63865 13.9207 5.665C13.9692 5.73296 14.0449 5.81857 14.0838 5.87078C14.1316 5.93725 14.1659 6.01242 14.1847 6.09206C14.208 6.0959 14.3576 6.12504 14.544 5.81818C14.7304 5.51131 14.9748 5.17537 14.9748 5.17537L15.363 4.5985L15.6076 4.10922L15.9146 3.56155L15.9613 3.30132L15.9609 3.30132Z" fill="#AC8132"/>
<path fill-rule="evenodd" clip-rule="evenodd" d="M16.3588 2.90901C16.3588 2.90901 16.1239 3.10107 16.0326 3.2163C15.9414 3.33152 15.7255 3.63392 15.7255 3.63392L15.8032 3.62417L16.1974 3.27462L16.3509 3.00079L16.3587 2.90952L16.3588 2.90901Z" fill="#A88F33"/>
<path fill-rule="evenodd" clip-rule="evenodd" d="M16.291 18.34C16.291 18.34 16.2872 18.1808 16.3765 18.0857C16.4677 17.9904 16.6987 17.8506 16.9239 17.3262C17.149 16.8019 17.1741 16.6835 17.1741 16.6835C17.1741 16.6835 16.7703 17.0292 16.5214 17.1108C16.5796 16.9903 16.6126 16.9049 16.6417 16.8427C16.6087 16.8137 16.4689 16.7807 16.4554 16.7652C16.5329 16.6875 16.5756 16.4971 16.7329 16.3709C16.9348 16.2172 17.3037 15.9532 17.5903 15.7178C17.877 15.4825 18.4405 14.9351 18.5124 14.7759C18.5552 14.838 18.5648 14.8767 18.5648 14.8767C18.5648 14.8767 18.2815 15.2458 18.134 15.4808C18.0039 15.6828 18.0136 15.7973 18.0136 15.7973L18.2816 15.6821C18.2816 15.6821 18.3593 15.9694 18.008 16.4065C18.1616 16.3482 18.2236 16.3831 18.3109 16.3345C18.1671 16.4259 17.9692 16.5502 17.7829 16.8919C17.6004 17.2337 17.352 17.6319 16.9327 17.8804C16.525 18.1427 16.29 18.3389 16.29 18.3389L16.291 18.34Z" fill="#A67A2E"/>
<path fill-rule="evenodd" clip-rule="evenodd" d="M15.2351 5.22781C15.2351 5.22781 15.076 5.55976 15.0528 5.81807C15.0489 5.88028 15.0333 5.9288 15.0334 6.0006C15.0296 6.23165 15.0471 6.48995 14.9951 6.61028C14.9756 6.56177 14.9659 6.52875 14.9465 6.50943C14.9174 6.59097 14.865 6.84532 14.8223 6.94044C14.8029 6.87836 14.7601 6.66282 14.764 6.40849C14.7679 6.15415 14.7735 6.10551 14.7735 6.05315C14.7639 6.13073 14.7115 6.2357 14.6921 6.29778C14.663 6.24544 14.6299 6.17748 14.591 6.12117C14.5677 6.15958 14.5387 6.21629 14.5135 6.24548C14.5095 6.22219 14.4999 6.15998 14.494 6.07269C14.4901 5.9717 14.4842 5.84165 14.4901 5.81438C14.4997 5.76203 14.5813 5.55618 14.754 5.36772C14.9598 5.14238 15.1714 4.70943 15.2334 4.5754C15.2955 4.44137 15.5594 3.88411 15.5594 3.88411L15.7614 3.88406L15.4683 4.55204C15.4683 4.55204 15.2918 4.91714 15.2005 5.05131C15.1093 5.18548 14.9171 5.56992 14.8317 5.71944C14.8937 5.63789 14.9462 5.59512 15.0084 5.51741C15.0685 5.463 15.2354 5.22807 15.2354 5.22807L15.2351 5.22781Z" fill="#8C6228"/>
<path fill-rule="evenodd" clip-rule="evenodd" d="M16.3627 2.88366C16.3297 2.98522 16.2776 3.07952 16.2092 3.16146C16.0888 3.30524 15.8305 3.49744 15.7045 3.65081C15.5893 3.80035 15.359 4.20822 15.4639 4.69165C15.5022 4.58681 15.5745 4.37904 15.7667 4.14398C15.9589 3.90892 16.1646 3.63904 16.2657 3.42935C16.3665 3.21761 16.38 3.0507 16.38 3.0507L16.4184 3.00218L16.3951 2.89146L16.3621 2.88366L16.3627 2.88366Z" fill="#CBA94C"/>
<path fill-rule="evenodd" clip-rule="evenodd" d="M20.2983 15.7622C20.2983 15.7622 20.2205 15.5506 20.1972 15.3584C20.1738 15.1661 20.2355 15.128 20.164 14.908C20.1213 14.774 20.0437 14.7928 20.0242 14.774C20.0048 14.7552 19.9911 14.5527 19.995 14.442C19.9988 14.3312 19.991 14.1876 19.9716 14.1254C19.9425 14.1021 19.9231 14.0827 19.8803 13.9391C19.8317 13.7954 19.8084 13.7236 19.7851 13.6809C19.7618 13.6383 19.6937 13.5994 19.6937 13.5567C19.6936 13.4712 19.7713 13.4266 19.7713 13.4031C19.7675 13.3545 19.7092 13.3935 19.6936 13.3798C19.6743 13.3565 19.7422 13.2167 19.717 13.1972C19.7073 13.1876 19.6393 13.2692 19.6218 13.2459C19.6023 13.2225 19.5789 12.9915 19.544 12.8381C19.511 12.6886 19.4759 12.58 19.4721 12.5353C19.4682 12.4925 19.2038 11.7392 19.1398 11.5567C19.0882 11.4025 19.0447 11.2456 19.0096 11.0868C18.9901 10.9956 18.9765 10.8091 18.9668 10.8286C18.9571 10.848 18.963 10.9431 18.9474 10.9393C18.9338 10.9353 18.8852 10.6034 18.8697 10.5509C18.8561 10.4985 18.7744 10.3206 18.7544 10.1918C18.7349 10.0616 18.6922 9.72181 18.6629 9.49078C18.6337 9.25974 18.6201 9.16464 18.6201 9.10679C18.6248 8.96528 18.617 8.82362 18.5967 8.6835C18.5582 8.43877 18.4813 8.1417 18.414 7.96905C18.2838 7.64281 17.9379 6.80796 17.876 6.60024C17.876 6.54776 17.9439 6.57692 17.9439 6.57692C17.9439 6.57692 18.1129 7.00017 18.2373 7.32628C18.3578 7.65252 18.4724 7.93985 18.5016 7.96903C18.5249 7.99808 18.7076 8.31841 18.7892 8.84268C18.8709 9.36694 18.9001 9.85039 18.9488 10.1727C18.9722 10.3263 18.9917 10.4892 19.0402 10.6523C19.0926 10.829 19.1742 11.0115 19.2811 11.2911C19.3725 11.526 19.4405 11.7221 19.4774 11.8911C19.5202 12.1066 19.5203 12.2697 19.5455 12.3766C19.569 12.4678 19.6038 12.6502 19.6856 12.9141C19.7673 13.178 19.8876 13.518 19.9692 13.7295C20.1286 14.1528 20.1998 14.5062 20.2239 14.6946C20.2452 14.8888 20.3173 15.5606 20.2979 15.7625L20.2983 15.7622Z" fill="#A88F33"/>
<path fill-rule="evenodd" clip-rule="evenodd" d="M16.3724 2.8603L16.3627 2.8836C16.3627 2.8836 16.3918 2.89332 16.386 2.93223C16.3865 2.98547 16.3832 3.03867 16.3763 3.09147C16.3668 3.15944 16.3473 3.21179 16.3435 3.25455C16.3435 3.34581 16.3571 3.45064 16.2284 3.7109C16.19 3.78272 16.1664 3.8448 16.1469 3.88756C16.0984 3.9924 16.0887 4.00802 16.046 4.05655C16.1139 4.01813 16.3586 3.86446 16.4828 3.88747C16.3974 3.936 16.2673 4.03127 16.1858 4.15558C16.2052 4.15942 16.2868 4.17501 16.4162 4.15552C16.6317 4.12244 16.8725 4.04468 17.0841 4.06011C17.3152 4.07361 17.2239 3.78244 17.2239 3.78244L16.957 3.19614L16.4521 2.84108L16.3724 2.86043L16.3724 2.8603Z" fill="#BE9C44"/>
<path fill-rule="evenodd" clip-rule="evenodd" d="M17.6901 7.25238C17.6901 7.25238 17.4648 7.02716 17.3733 6.25406C17.2818 5.47739 17.301 4.33408 17.301 4.33408L17.1183 3.88754C17.1183 3.88754 17.0798 3.59046 16.9842 3.4799C16.8885 3.36933 16.7007 3.18289 16.6152 3.09164C16.5297 3.0004 16.4326 2.87614 16.3744 2.8567C16.4034 2.80818 16.5335 2.53435 17.0324 2.53038C17.5314 2.52641 17.6853 2.804 17.7374 2.90498C17.7896 3.00595 18.0249 3.4425 18.1125 4.27447C18.1942 5.10543 18.1982 5.16764 18.1847 5.455C18.175 5.61423 18.1227 5.98314 18.0314 6.37728C17.948 6.71138 17.8568 7.08427 17.6898 7.25315L17.6901 7.25238Z" fill="#A17C34"/>
<path fill-rule="evenodd" clip-rule="evenodd" d="M16.9838 7.91464C17.0589 7.92004 17.1339 7.90309 17.1993 7.86594C17.2712 7.86208 17.5314 7.89504 17.7313 7.64065C17.7448 7.69875 17.78 7.85619 17.6886 7.99599C17.7372 7.94733 17.809 7.92799 17.8188 7.91441C17.8226 7.98622 17.8906 8.20752 17.6034 8.74545C17.681 8.66005 17.7722 8.66387 17.8538 8.65412C17.8578 8.75511 17.9121 9.09481 17.7686 9.2775C17.6735 9.40181 17.5181 9.36294 17.5181 9.36294C17.5204 9.33581 17.5203 9.30854 17.5181 9.28141C17.5142 9.22893 17.4947 9.17658 17.5084 9.14163C17.4333 9.10736 17.3649 9.06 17.3064 9.00178C17.1374 8.8426 16.9179 8.57091 16.9024 8.36893C16.8829 8.14366 17.0848 8.09509 17.0848 8.09509C17.0679 8.07996 17.0535 8.06225 17.0421 8.04262C17.0323 8.00973 17.0226 7.95725 16.9838 7.91464Z" fill="#8C6228"/>
<path fill-rule="evenodd" clip-rule="evenodd" d="M15.4856 5.4723C15.4856 5.4723 15.4759 5.45873 15.4235 5.52083C15.4332 5.45874 15.443 5.40037 15.4468 5.34405C15.4715 5.2919 15.5036 5.24354 15.542 5.20041C15.5128 5.25853 15.4934 5.31102 15.4934 5.31102C15.4934 5.31102 15.5653 5.17698 15.6701 5.09542C15.7419 5.03716 15.8331 5.01 15.8719 4.95559C15.9146 4.89733 15.9049 4.88761 15.9146 4.87788C15.9146 4.87788 16.0098 4.81577 16.1555 4.63308C16.1748 4.60978 16.204 4.58455 16.2234 4.56125C16.2563 4.54767 16.334 4.51271 16.4252 4.46597C16.5205 4.41359 16.6272 4.34175 16.6932 4.31229C16.8233 4.25402 16.9612 4.25987 17.0252 4.16846C17.0737 4.15488 17.126 4.0092 17.1164 3.88504C17.1882 3.91408 17.5572 4.1431 17.6837 4.64406C17.775 4.99936 17.612 5.54699 17.5441 5.8112C17.4762 6.07541 17.4666 6.27138 17.3714 6.39173C17.251 6.55112 16.8628 6.77586 16.7676 6.88712C16.6861 6.97841 16.4416 7.20951 16.4512 7.37642C16.461 7.50071 16.6144 7.56838 16.6475 7.59192C16.6807 7.61546 16.6804 7.64439 16.7426 7.6303C16.8048 7.6162 16.828 7.58752 16.8533 7.58751C16.8824 7.59135 16.8824 7.59723 16.896 7.59723C16.9058 7.59694 16.9156 7.5956 16.9251 7.59326C16.9251 7.59326 16.9155 7.77003 16.5019 7.82377C16.4727 7.82774 16.4437 7.83735 16.4067 7.84325C16.4553 7.81994 16.4844 7.81993 16.5368 7.74811C16.4786 7.7384 16.3116 7.72872 16.2688 7.71516C16.2824 7.69186 16.327 7.62964 16.3639 7.60057C16.3969 7.57151 16.36 7.56217 16.331 7.57729C16.2809 7.61134 16.233 7.64828 16.1873 7.68792C16.1388 7.73068 16.096 7.78893 16.0183 7.84156C15.995 7.76387 15.9988 7.61629 16.0902 7.50951C16.0668 7.51336 16.0221 7.58134 15.9795 7.56778C15.9718 7.49696 15.9763 7.42533 15.993 7.35606C16.0163 7.26863 16.1424 7.11526 16.1424 7.11526L16.7518 6.02569L16.8816 5.20043L15.4856 5.47204L15.4856 5.4723Z" fill="#92723A"/>
<path fill-rule="evenodd" clip-rule="evenodd" d="M15.4527 5.51895C15.4527 5.51895 15.4197 5.54225 15.4857 5.5869C15.476 5.60048 15.4527 5.64899 15.4236 5.68203C15.3907 5.72043 15.3556 5.74425 15.342 5.77728C15.313 5.84525 15.2897 5.89185 15.2897 5.92104C15.2897 5.95022 15.2801 6.13659 15.1986 6.25693C15.1694 6.29969 15.1364 6.37151 15.1131 6.42003C15.0646 6.50542 15.0219 6.57365 15.0122 6.61206C14.9928 6.68003 14.9793 6.8664 14.9793 6.8664C14.9793 6.8664 15.0221 6.81391 15.0375 6.79458C15.0141 6.8431 14.9889 6.89545 14.9521 6.93438C14.9754 6.91491 15.0433 6.86638 15.1579 6.76536C15.3171 6.63143 15.5656 6.40608 15.8685 6.22757C15.7771 6.26062 15.6995 6.26064 15.6375 6.27038C15.686 6.22186 16.1227 5.7091 16.3518 5.66053C16.3657 5.64288 16.3726 5.62074 16.3712 5.59831L16.175 5.57904L15.777 5.66452L15.7188 5.35734L15.4527 5.51856L15.4527 5.51895Z" fill="#B18E3E"/>
<path fill-rule="evenodd" clip-rule="evenodd" d="M16.0863 7.26635C16.0863 7.26635 16.0338 7.31871 15.9853 7.4489C15.9479 7.40991 15.9159 7.36615 15.89 7.31875C15.8182 7.19845 15.7076 7.04501 15.4493 7.1325C15.4454 7.05097 15.4395 7.00822 15.4492 6.94997C15.492 6.94036 15.622 6.83549 15.752 6.68199C15.8434 6.57713 15.9287 6.45666 15.9869 6.3033C16.0253 6.27411 16.0917 6.22558 16.1789 6.16923C16.3031 6.08382 16.4526 5.96718 16.4759 5.83712C16.4176 5.86043 16.2934 5.91871 16.1069 5.90916C16.1788 5.87611 16.2894 5.84114 16.2758 5.6974C16.305 5.67794 16.3283 5.66436 16.3283 5.66436C16.3064 5.65707 16.2833 5.65378 16.2603 5.65465C16.2563 5.64108 16.2505 5.62176 16.2175 5.63137C16.1845 5.64098 16.1791 5.6411 16.1748 5.65467C16.1612 5.65865 16.1165 5.65469 16.0835 5.67812C16.0505 5.70156 15.9593 5.77902 15.9243 5.7926C15.9379 5.7693 15.9572 5.73448 15.9572 5.73448C15.9572 5.73448 15.8621 5.7441 15.7941 5.77292C15.6699 5.81571 15.5263 5.89344 15.3806 5.96913C15.3942 5.94583 15.4001 5.93072 15.4097 5.92637C15.4193 5.92201 15.4427 5.91676 15.4427 5.91279C15.4427 5.90882 15.4331 5.87439 15.4388 5.86044C15.4824 5.76817 15.5337 5.67981 15.5924 5.59633C15.6603 5.50492 15.6738 5.37487 15.6738 5.37487L15.9709 5.22529L16.8058 5.03306L17.3476 5.06594L17.2797 5.44075L16.9599 6.09517L16.6863 6.69134L16.3737 7.05661L16.0864 7.26635L16.0863 7.26635Z" fill="#543E26"/>
<path fill-rule="evenodd" clip-rule="evenodd" d="M17.4392 5.64411C17.4392 5.64411 17.113 6.04803 17.0218 6.11027C17.08 5.98596 17.4391 5.24603 17.5691 5.04017C17.54 5.01688 17.5011 5.01689 17.5922 4.65616C17.5147 4.83858 17.4875 4.93382 17.4235 4.98235C17.3595 5.03088 17.3516 5.01539 17.3083 5.0154C17.3165 5.00062 17.3198 4.98366 17.3179 4.96689C17.3179 4.96689 17.0441 4.93394 16.8571 4.93399C16.6701 4.93404 16.2999 5.03513 16.094 5.11672C15.931 5.18473 15.8397 5.18476 15.7815 5.2274C15.7232 5.27593 15.6902 5.32841 15.661 5.34199C15.6377 5.35556 15.5272 5.39054 15.5018 5.42741C15.4785 5.46582 15.4398 5.50896 15.4398 5.51869C15.4398 5.52842 15.4301 5.54212 15.4592 5.53225C15.4688 5.52841 15.5408 5.48948 15.6223 5.44094C15.7329 5.37883 15.8669 5.30699 15.964 5.26421C16.2416 5.15342 16.329 5.17285 16.4532 5.14952C16.5832 5.12619 16.7697 5.07174 16.8939 5.07171C17.0182 5.06783 17.2532 5.07161 17.3076 5.08132C17.2843 5.10079 17.2648 5.12409 17.2746 5.20562C17.2746 5.22892 17.2551 5.25414 17.2362 5.31046C17.1781 5.46971 17.0675 5.7338 17.006 5.86784C16.9206 6.05026 16.8236 6.20376 16.7757 6.29888C16.7277 6.39399 16.6222 6.64452 16.5176 6.77856C16.4131 6.9126 16.3584 6.99415 16.3257 7.02335C16.2929 7.05254 16.0577 7.22528 16.0753 7.28748C16.118 7.2739 16.3879 7.1722 16.5838 6.95147C16.7797 6.73075 16.8188 6.59608 16.9721 6.47559C17.1254 6.3551 17.2458 6.15321 17.3175 5.98628C17.3777 5.83087 17.3641 5.78237 17.4397 5.64449L17.4392 5.64411Z" fill="#806031"/>
<path fill-rule="evenodd" clip-rule="evenodd" d="M10.4089 8.66008C10.4089 8.66008 10.3662 8.83673 10.2691 8.92418C10.174 9.00971 10.0051 9.08348 9.98576 9.22723C9.9625 9.37086 10.1548 9.44274 10.1548 9.44274C10.1548 9.44274 10.0499 9.61557 10.0499 9.74562C10.0499 9.87963 10.0461 9.90485 10.0597 10.033C10.0443 10.0429 10.0312 10.056 10.0213 10.0714C10.0213 10.0714 10.031 10.1957 10.1262 10.2732C10.2215 10.3508 10.3029 10.3975 10.3514 10.378C10.3588 10.3938 10.3653 10.41 10.3709 10.4266C10.3709 10.4266 10.4427 10.2441 10.4912 10.0848C10.5397 9.92174 10.5824 9.9449 10.6017 9.7255C10.621 9.5061 10.8319 9.12934 10.8319 9.12934L10.9759 8.80738L10.7409 8.62492L10.4089 8.65995L10.4089 8.66008Z" fill="#B6903C"/>
<path fill-rule="evenodd" clip-rule="evenodd" d="M10.846 8.97643C10.7975 9.02617 10.7528 9.0794 10.7122 9.1357C10.6502 9.22122 10.6017 9.2988 10.5104 9.33198C10.4192 9.36516 10.3609 9.36492 10.3667 9.45631C10.3725 9.5477 10.458 9.58633 10.5066 9.63291C10.559 9.68141 10.6018 9.76293 10.5785 9.85433C10.6076 9.84075 10.6601 9.82512 10.7086 9.72028C10.757 9.61543 11.0962 8.97649 11.0962 8.97649L10.846 8.97656L10.846 8.97643Z" fill="#685026"/>
<path fill-rule="evenodd" clip-rule="evenodd" d="M12.1837 7.50222C12.1837 7.50222 12.2127 7.42464 12.1837 7.36833C12.1545 7.3101 11.9778 7.29069 11.8904 7.22467C11.7991 7.15672 11.6884 7.10952 11.5971 7.13937C11.6107 7.10634 11.665 7.03439 11.6204 7.01892C11.5776 7.00536 11.4185 7.07721 11.3758 7.11025C11.333 7.14328 11.2359 7.18209 11.2166 7.20552C11.1973 7.22895 11.1641 7.2735 11.1447 7.25405C11.1252 7.24049 11.1156 7.20555 11.0826 7.22488C11.0495 7.24422 10.8906 7.37444 10.8613 7.45022C10.832 7.52601 10.7662 7.69499 10.5682 7.88717C10.3702 8.07935 10.2848 8.20379 10.343 8.27558C10.4013 8.34737 10.4285 8.29501 10.4383 8.35709C10.4458 8.41803 10.4425 8.47981 10.4286 8.53962C10.4053 8.64062 10.3666 8.73573 10.4189 8.75517C10.5529 8.79789 10.6831 8.7167 10.7122 8.74153C10.7704 8.79386 10.6792 8.9823 10.8171 9.01913C10.957 9.05749 11.0948 8.98603 11.0948 8.98603L11.6034 8.7121L12.0927 8.4538L12.3429 7.9585L12.2085 7.54497L12.1829 7.50222L12.1837 7.50222Z" fill="#D4B968"/>
<path fill-rule="evenodd" clip-rule="evenodd" d="M11.7041 8.68499C11.7041 8.68499 11.6186 8.55496 11.7235 8.44025C11.8285 8.32553 11.9778 8.27711 12.036 8.20528C12.0249 8.19161 12.0101 8.18151 11.9933 8.17624C12.0319 8.10705 12.0909 8.0514 12.1622 8.01683C12.1331 7.98778 12.0942 7.9645 12.0516 7.96451C11.9564 7.96454 11.898 8.02279 11.8107 8.02281C11.7253 8.02284 11.7156 7.98009 11.7156 7.98009C11.7156 7.98009 11.8593 7.96648 11.8456 7.90236C11.832 7.83439 11.8072 7.8344 11.8072 7.8344C11.8072 7.8344 12.0848 7.71913 12.1333 7.65767C12.1818 7.59622 12.176 7.52364 12.1857 7.49459C12.2186 7.49458 12.4109 7.39353 12.4886 7.43626C12.5663 7.479 12.5119 7.59549 12.5119 7.59549C12.5119 7.59549 12.747 7.41866 12.8668 7.24531C12.9716 7.25501 13.0203 7.17347 13.0971 7.17345C13.1924 7.17342 13.3419 7.30343 13.371 7.58105C13.3905 7.74028 13.4196 7.83153 13.3906 8.11314C13.3771 8.27238 13.381 8.61234 13.4292 8.78104C13.4622 8.91504 13.5398 8.90145 13.5398 8.90145C13.5279 8.94229 13.5043 8.97875 13.4719 9.0063C13.4194 9.05483 13.4137 9.18309 13.4195 9.2316C13.4272 9.26706 13.437 9.30206 13.4487 9.33642C13.4487 9.33642 13.3866 9.40825 13.371 9.45689C13.3575 9.50541 13.2935 9.53845 13.2468 9.53846C13.2 9.53847 13.2235 9.5345 13.1614 9.53848C13.0993 9.54247 13.0799 9.55207 13.0409 9.53852C13.002 9.52496 12.973 9.50935 12.9885 9.38493C13.0021 9.26064 12.5088 8.97149 12.5088 8.97149L11.7023 8.68435L11.7041 8.68499Z" fill="#CCA849"/>
<path fill-rule="evenodd" clip-rule="evenodd" d="M10.7782 9.91233C10.7782 9.91233 10.9549 10.1473 11.6812 10.1471C12.0268 10.147 12.1472 10.1139 12.2187 10.0945C12.2964 10.075 12.5876 9.96049 12.8808 9.61468C13.1447 9.30203 13.0865 9.17392 13.0865 9.17392L12.9329 9.15067L12.4337 9.21877L10.9567 9.84829L10.7775 9.91233L10.7782 9.91233Z" fill="#585136"/>
<path fill-rule="evenodd" clip-rule="evenodd" d="M11.3199 9.97049C11.3199 9.97049 10.6908 10.1106 10.6907 9.71249C10.6906 9.32413 11.0788 8.91622 11.176 8.84439C11.2769 8.77242 11.5177 8.6907 11.5177 8.6907L12.0983 8.69054L12.209 8.98376L12.1606 9.61673L11.3199 9.97036L11.3199 9.97049Z" fill="#252211"/>
<path fill-rule="evenodd" clip-rule="evenodd" d="M11.9001 8.80919C11.9001 8.80919 11.7798 8.69851 11.506 8.8477C11.2322 8.99689 11.0109 9.30863 10.9974 9.59164C10.9839 9.84202 11.2033 10.0285 11.5451 10.0381C11.7994 10.0476 11.9529 10.0185 12.0306 9.99956C12.0111 9.97627 11.9101 9.85009 11.9101 9.85009L11.9002 8.80932L11.9001 8.80919Z" fill="#C3B378"/>
<path fill-rule="evenodd" clip-rule="evenodd" d="M11.7817 8.87125C11.7817 8.87125 11.7526 8.84796 11.6665 8.89457C11.5947 8.93299 11.4899 9.03452 11.4084 9.10635C11.3559 9.14912 11.3229 9.16846 11.2932 9.20149C11.1728 9.34526 11.0719 9.5803 11.1303 9.69676C11.1887 9.81323 11.3808 9.94719 11.8702 9.8558L11.7803 8.87137L11.7817 8.87125Z" fill="#E6D89C"/>
<path fill-rule="evenodd" clip-rule="evenodd" d="M11.6226 9.11208C11.6226 9.11208 11.5449 9.23255 11.5449 9.4248C11.545 9.6209 11.6558 9.93345 12.0636 9.95663C12.3762 9.97601 12.5857 9.50606 12.8129 9.32347C12.9856 9.18365 13.0905 9.17965 13.0905 9.17965C13.0905 9.17965 12.9138 8.9877 12.4419 8.73912C11.9758 8.48875 11.4534 8.45587 11.17 8.84046C11.304 8.83069 11.737 8.71986 11.737 8.71986L11.9487 8.78777L11.6226 9.11221L11.6226 9.11208Z" fill="#252211"/>
<path fill-rule="evenodd" clip-rule="evenodd" d="M12.2325 9.36634C12.2189 9.33728 12.2092 9.29837 12.2655 9.28876C12.3218 9.27914 12.347 9.28477 12.3665 9.32713C12.3859 9.36949 12.4049 9.40482 12.3761 9.42236C12.3471 9.43786 12.2713 9.42239 12.2323 9.36608L12.2325 9.36634ZM12.1411 9.09257C12.1411 9.09257 12.1217 9.10614 12.1314 9.079C12.1352 9.04611 12.1606 8.98773 12.2227 9.00141C12.2847 9.01509 12.2713 9.08293 12.2611 9.10239C12.2508 9.12185 12.199 9.15476 12.1601 9.14082C12.1552 9.13956 12.1506 9.13715 12.1468 9.1338C12.1429 9.13044 12.14 9.12623 12.1381 9.1215C12.1362 9.11678 12.1354 9.11167 12.1359 9.1066C12.1363 9.10153 12.1379 9.09663 12.1406 9.09231L12.1411 9.09257Z" fill="#6F674D"/>
<path fill-rule="evenodd" clip-rule="evenodd" d="M6.88493 9.21814C6.88493 9.21814 7.03856 9.3333 7.217 9.32877C7.39363 9.32476 7.62079 9.1423 7.72559 9.02566C7.78765 8.95768 7.84075 8.88585 7.89833 8.82952C7.94696 8.78099 7.97985 8.75769 8.00314 8.72466C8.03615 8.68625 8.07108 8.61405 8.08861 8.59062C8.04586 8.62365 7.9838 8.68204 7.91968 8.72084C7.85761 8.75926 7.72361 8.83149 7.66922 8.85096C7.61687 8.87043 7.07321 9.15832 7.07321 9.15832L6.88493 9.21814Z" fill="#AC924C"/>
<path fill-rule="evenodd" clip-rule="evenodd" d="M7.11943 7.78332C7.11943 7.78332 7.20479 7.72505 7.3699 7.68802C7.52912 7.64958 7.8495 7.61992 7.8495 7.61992L8.11359 7.73505L8.21853 8.1331L8.02664 8.54685L7.78207 8.70052L7.50419 8.254L7.12007 7.78408L7.11943 7.78332Z" fill="#9F8E57"/>
<path fill-rule="evenodd" clip-rule="evenodd" d="M6.77385 8.13866L6.68248 8.20691C6.68248 8.20691 6.70589 8.16415 6.72518 8.0341C6.74448 7.90405 6.84551 7.58748 6.99305 7.40491C7.14058 7.22234 7.13675 7.23207 7.13675 7.23207C7.12316 7.22959 7.10921 7.23003 7.09581 7.23337C7.08242 7.23671 7.06989 7.24286 7.05905 7.25142C7.0785 7.20841 7.20275 7.05477 7.32701 6.97794C7.45128 6.90111 7.49979 6.8769 7.62985 6.93946C7.75991 7.00202 7.79295 7.03452 7.88818 7.03065C7.98341 7.02679 8.06479 6.92577 8.06479 6.92577C8.06479 6.92577 8.08426 6.98785 8.01249 7.13161C7.94072 7.27538 7.65728 7.56857 7.65728 7.56857L7.06706 7.97257L6.77385 8.13905L6.77385 8.13866Z" fill="#EAC970"/>
<path fill-rule="evenodd" clip-rule="evenodd" d="M7.21045 7.7348C7.21045 7.7348 7.63773 7.79292 7.76774 7.67257C7.77159 7.68613 7.7872 7.68613 7.78721 7.69586C7.78616 7.70319 7.78275 7.70998 7.77748 7.71519C7.79163 7.71293 7.80591 7.71164 7.82023 7.71134C7.83733 7.71642 7.85493 7.71968 7.87272 7.72105C7.88704 7.72074 7.90133 7.71941 7.91547 7.71707C7.91412 7.72672 7.91084 7.73601 7.90583 7.74436C7.90082 7.75272 7.89418 7.75998 7.8863 7.76572C7.90575 7.76571 7.9247 7.76955 7.9247 7.78504C7.92471 7.80052 7.92856 7.84724 7.90526 7.85698C7.88597 7.86232 7.86542 7.86093 7.84702 7.85303C7.84857 7.88979 7.85857 7.9257 7.87623 7.95798C7.91465 8.02978 7.9966 8.11155 8.10667 8.08796C8.10667 8.08796 8.16482 8.22772 7.9203 8.53845C7.88741 8.58121 7.85235 8.63946 7.80974 8.68798C7.79291 8.72469 7.78005 8.7631 7.77137 8.80255C7.77137 8.80255 8.18503 8.64321 8.30333 8.28004C8.42368 7.91495 8.44688 7.55578 8.42349 7.21991C8.4195 7.12468 8.40399 7.05684 8.38068 7.00821C8.32241 6.88778 8.15922 6.90728 8.09332 6.97526C7.99811 7.07052 7.83894 7.30736 7.61767 7.4705C7.39244 7.63363 7.38284 7.66256 7.20994 7.7348L7.21045 7.7348Z" fill="#D7BC6B"/>
<path fill-rule="evenodd" clip-rule="evenodd" d="M6.69811 8.25919C6.69811 8.25919 6.61659 8.30773 6.57389 8.48963C6.53118 8.67601 6.6124 8.90319 6.65939 8.97498C6.70639 9.04678 6.81306 9.24297 7.03425 9.25264C7.089 9.25234 7.14313 9.24109 7.19347 9.21957C7.27068 9.18415 7.34309 9.1391 7.40899 9.0855C7.5042 9.01367 7.58175 8.95157 7.57202 8.94568C7.54873 8.93596 6.98553 8.47006 6.98553 8.47006L6.77375 8.23383L6.69798 8.25945L6.69811 8.25919Z" fill="#585136"/>
<path fill-rule="evenodd" clip-rule="evenodd" d="M7.23059 9.03174C7.23059 9.03174 7.34515 9.0221 7.41311 8.97933C7.48107 8.93656 7.01489 8.47461 7.01489 8.47461L7.04805 8.9738L7.23059 9.03174Z" fill="#453A25"/>
<path fill-rule="evenodd" clip-rule="evenodd" d="M6.73504 8.22408C6.73504 8.22408 6.67683 8.33482 6.67683 8.364C6.66713 8.45911 6.6964 8.75811 6.71972 8.8532C6.74304 8.95419 6.86929 9.1075 7.03249 9.10746C7.13335 9.10743 7.27324 9.04531 7.27324 9.02982C7.27323 9.01037 7.12948 8.99146 7.09068 8.91915C7.06737 8.88076 7.05762 8.78527 7.05222 8.68876C7.04836 8.62669 7.04834 8.55872 7.07163 8.53516C7.1241 8.4769 7.13365 8.30986 7.13365 8.30986L7.31993 7.96357L7.07481 7.96364L6.78161 8.14624L6.73504 8.22408Z" fill="#84754B"/>
<path fill-rule="evenodd" clip-rule="evenodd" d="M6.66324 8.33105C6.66324 8.33105 6.85517 8.07666 7.02822 8.01825C7.20126 7.95983 7.2787 7.99488 7.2787 7.99488L7.17778 8.25321L7.03408 8.41248L7.04383 8.49402C7.04383 8.49402 7.02046 8.70958 7.16425 8.85904C7.30803 9.00851 7.41478 9.00272 7.47699 9.0027C7.5392 9.00268 7.71775 8.95016 7.80895 8.73458C7.89043 8.5327 7.95833 8.27374 7.79519 8.0142C7.63576 7.75594 7.35429 7.74603 7.29989 7.74604C7.24549 7.74606 6.81836 7.76755 6.66324 8.33066L6.66324 8.33105Z" fill="#252211"/>
<path fill-rule="evenodd" clip-rule="evenodd" d="M11.5934 9.19366C11.5216 9.16066 11.5895 8.95878 11.6613 8.89656C11.7331 8.83433 11.8243 8.76263 11.9837 8.75273C12.0418 8.74887 12.0981 8.78572 12.0886 8.82463C12.075 8.89645 11.974 8.99746 11.8828 9.0693C11.7566 9.1684 11.675 9.23051 11.5934 9.19366Z" fill="#F7F7E7"/>
<path fill-rule="evenodd" clip-rule="evenodd" d="M7.70974 8.09384C7.76222 8.08998 7.8302 8.1322 7.84378 8.18903C7.85736 8.25111 7.81081 8.37541 7.70981 8.37544C7.62828 8.37546 7.5855 8.27448 7.58549 8.24542C7.5864 8.22153 7.59307 8.19821 7.60493 8.17745C7.60877 8.17156 7.61848 8.10359 7.70974 8.09384Z" fill="#F8F6DE"/>
<path fill-rule="evenodd" clip-rule="evenodd" d="M6.95236 8.13861C6.95236 8.13861 6.81836 8.20072 6.75632 8.33066C6.71198 8.42661 6.69859 8.53397 6.718 8.63787C6.72774 8.68638 6.77628 8.80669 6.80932 8.84943C6.84235 8.89217 6.88703 8.92134 6.92006 8.91737C6.95308 8.91339 7.0209 8.82608 7.02088 8.77372C7.02087 8.72137 7.02478 8.49993 7.08874 8.37947C7.14503 8.25913 6.95274 8.13873 6.95274 8.13873L6.95236 8.13861Z" fill="#D4C38B"/>
<path fill-rule="evenodd" clip-rule="evenodd" d="M6.97199 8.12898C6.94869 8.14256 6.90992 8.16203 6.91952 8.18724C6.92926 8.21053 7.0108 8.22561 7.04 8.28244C7.07304 8.34067 7.07305 8.40275 7.06333 8.43194C7.08869 8.41988 7.1117 8.4034 7.13129 8.38328C7.17403 8.33475 7.22636 8.26882 7.27103 8.26881C7.30022 8.2688 7.32928 8.28236 7.35654 8.28235C7.39929 8.28234 7.44191 8.26876 7.44779 8.22409C7.45737 8.16585 7.36622 8.11339 7.31375 8.12313C7.32346 8.08473 7.33702 8.02802 7.29425 7.98912C7.25149 7.95022 7.11762 8.01835 7.08844 8.03782C7.05926 8.05728 6.97199 8.12911 6.97199 8.12911L6.97199 8.12898Z" fill="#E2D59D"/>
<path fill-rule="evenodd" clip-rule="evenodd" d="M10.0585 12.2077L10.3458 12.1228L10.4274 12.181C10.4274 12.181 10.4855 12.3052 10.5769 12.3207C10.5477 12.3828 10.472 12.4359 10.476 12.48C10.4799 12.524 10.5187 12.5576 10.5187 12.5576C10.5187 12.5576 10.2605 12.9849 10.7695 13.4152C10.649 13.4637 10.4957 13.5305 10.4142 13.5689C10.4723 13.5824 10.5966 13.6072 10.6491 13.6543C10.7016 13.7014 10.7016 13.7164 10.7501 13.7456C10.7986 13.7747 10.8277 13.8135 10.8181 13.8309C10.7851 13.8115 10.6743 13.7534 10.655 13.8077C10.6357 13.8619 10.1754 13.8408 10.1754 13.8408L9.39874 13.9905C9.39874 13.9905 9.42777 13.9128 9.34622 13.841C9.25109 13.7557 9.13464 13.8449 9.01032 13.7499C8.84722 13.6256 8.84129 13.4819 8.78892 13.4276C8.84127 13.3946 8.94813 13.346 9.20246 13.3123C9.19273 13.2929 9.15969 13.2346 9.17913 13.1823C9.20241 13.1143 9.29942 13.0715 9.27034 12.9902C9.31309 12.9805 9.33242 12.9805 9.43926 12.8465C9.54022 12.7124 9.60229 12.6833 9.67999 12.6736C9.75768 12.6638 9.80427 12.6736 9.94798 12.5395C10.0488 12.4444 10.0159 12.3628 10.0159 12.3628C10.0159 12.3628 10.0818 12.3414 10.0586 12.2074L10.0585 12.2077Z" fill="#CBAC5A"/>
<path fill-rule="evenodd" clip-rule="evenodd" d="M9.20995 12.2511C9.21378 12.2317 9.2294 12.2219 9.33423 12.2316C9.43907 12.2413 10.1031 12.1693 10.2837 12.1596C10.4662 12.1459 11.1089 12.1554 11.4217 12.2213C11.7344 12.2873 12.0508 12.3649 12.2042 12.4037C12.3578 12.4464 12.4062 12.4617 12.4003 12.4812C12.3964 12.5006 12.3619 12.5196 12.3421 12.5142C12.3227 12.5104 11.8139 12.3551 11.6567 12.3224C11.4995 12.2897 10.9556 12.2021 10.6583 12.2075C10.3806 12.2115 10.2699 12.2037 10.035 12.2309C9.80003 12.2602 9.41169 12.2991 9.2952 12.2836C9.18 12.2701 9.20381 12.2701 9.20969 12.2506L9.20995 12.2511Z" fill="#D6BC6F"/>
<path fill-rule="evenodd" clip-rule="evenodd" d="M10.7734 13.7725C10.7734 13.7725 11.1715 13.988 11.3153 14.252C11.4202 14.4481 11.2533 14.5453 11.2533 14.5453C11.2533 14.5453 11.4786 14.5452 11.4494 14.6695C11.4359 14.7471 11.0612 14.9568 10.8107 15.0676C10.5564 15.1784 10.5661 15.1726 10.4418 15.192C10.3214 15.2115 9.99126 15.1537 9.92332 15.2504C9.85538 15.347 9.88497 15.4466 9.90392 15.4621C9.92338 15.4757 10.0807 15.4951 10.0807 15.4951C10.0807 15.4951 10.0477 15.5864 9.72156 15.5962C9.39542 15.606 9.31376 15.6292 9.29431 15.6643C9.27487 15.6972 9.3564 15.6778 9.50604 15.7026C9.65555 15.7258 9.86521 15.7409 9.86521 15.7409C9.86521 15.7409 9.79726 15.7992 9.62063 15.8458C9.41866 15.8982 9.10213 15.9469 9.00705 16.0052C9.05557 16.0382 9.12752 16.0867 9.16067 16.0905C9.07914 16.11 8.96446 16.1528 8.94514 16.1683C8.9742 16.1877 9.01312 16.211 9.01312 16.211C9.01312 16.211 8.84997 16.4072 8.75488 16.4558C8.65979 16.5045 8.11227 16.7588 7.92384 16.7104C7.45392 16.5862 7.39554 16.0717 7.28097 16.0329C7.10816 15.9747 7.02665 16.0911 6.87316 16.0096C6.94111 15.9611 6.9781 15.932 7.0499 15.899C6.97219 15.8606 6.5702 15.6058 6.5702 15.6058C6.52815 15.5142 6.48147 15.4248 6.43035 15.338C6.35262 15.204 6.23827 15.0253 6.15247 14.868C5.96601 14.5225 5.95624 14.3633 5.78722 14.1672C5.8164 14.1288 5.91726 14.1341 5.91726 14.1341L7.33307 14.5998L9.8433 14.6718L10.4958 13.7397L10.7735 13.7727L10.7734 13.7725Z" fill="#DFC677"/>
<path fill-rule="evenodd" clip-rule="evenodd" d="M7.05537 15.1949C7.07053 15.2118 7.08819 15.2262 7.10774 15.2377C7.15639 15.2707 7.2282 15.3096 7.27673 15.3677C7.29618 15.3386 7.34468 15.2861 7.43033 15.3676C7.51599 15.4491 7.62234 15.391 7.68852 15.4103C7.75649 15.4337 7.76034 15.4433 7.76034 15.4433C7.76034 15.4433 7.79873 15.4103 7.88461 15.3753C7.93708 15.3558 7.99916 15.3422 8.06712 15.3229C8.1292 15.3093 8.19716 15.2898 8.24388 15.2898C8.28664 15.3189 8.44003 15.4818 9.05552 15.2411C9.63606 15.0157 9.76994 14.9904 9.8671 15.0252C9.87683 15.0019 9.88654 14.9572 10.036 14.9631C10.036 14.901 9.91169 14.6893 9.91169 14.6893L9.22618 14.4546L8.85127 14.4547L7.7271 14.6608L7.10422 15.0165L7.05576 15.1957L7.05537 15.1949Z" fill="#C4A859"/>
<path fill-rule="evenodd" clip-rule="evenodd" d="M6.68042 14.8009C6.68042 14.8009 6.69402 14.9057 6.84944 15.0164C7.00307 15.1269 7.05134 15.193 7.05134 15.193C7.05134 15.193 7.08051 15.1546 7.1038 15.1154C7.12708 15.0726 7.14653 15.0241 7.18531 15.0105C7.263 14.9775 7.43965 15.0395 7.47856 15.0298C7.51158 15.0202 7.50184 14.9522 7.53678 14.9522C7.61831 14.9482 7.67068 15.0045 7.69987 15.0045C7.72905 15.0045 7.80073 15.0006 7.81045 14.9851C7.82018 14.9697 7.82397 14.8084 7.93467 14.7307C8.0551 14.6452 8.20269 14.6821 8.24186 14.7015C8.24187 14.7306 8.24573 14.8025 8.32343 14.8063C8.40113 14.8101 8.4088 14.7966 8.47703 14.8199C8.54526 14.8431 8.62654 14.816 8.66343 14.9304C8.69645 14.9208 8.77415 14.911 8.75466 14.8003C8.79305 14.7713 8.82658 14.7518 8.90822 14.6372C8.92766 14.6081 8.96055 14.5751 8.98588 14.5324C9.05385 14.5323 9.13538 14.5187 9.24408 14.6138C9.21106 14.6371 9.19161 14.6522 9.18202 14.6759C9.21045 14.7041 9.23641 14.7346 9.25961 14.7672C9.28881 14.8056 9.30827 14.8527 9.34514 14.8624C9.42668 14.8856 9.56069 14.8526 9.7102 14.8623C9.85394 14.872 9.97428 14.9243 10.0268 14.9573C10.0462 14.9477 10.0462 14.9437 10.0947 14.9534C10.1432 14.9631 10.1801 14.967 10.1277 14.9049C10.1568 14.9185 10.1898 14.9476 10.219 14.9185C10.2482 14.8893 10.2713 14.8466 10.3529 14.8369C10.4344 14.8271 10.4636 14.8407 10.4966 14.7553C10.5393 14.6505 10.3917 14.6505 10.3917 14.6505C10.3917 14.6505 10.4597 14.5883 10.5354 14.5067C10.6267 14.4213 10.7315 14.3106 10.7567 14.1746C10.7994 13.9241 10.5547 13.8913 10.5547 13.8913L9.3684 14.2567L7.91789 14.1851L6.68119 14.801L6.68042 14.8009Z" fill="#927D49"/>
<path fill-rule="evenodd" clip-rule="evenodd" d="M5.61341 11.374C5.61341 11.374 5.57502 11.4225 5.55138 11.5371C5.52773 11.6517 5.53783 11.6381 5.5184 11.7196C5.49897 11.8012 5.26021 12.6129 5.34988 12.8866C5.43956 13.1604 5.59472 13.2614 5.6918 13.4827C5.71127 13.5312 5.73022 13.5603 5.74035 13.6031C5.77341 13.7467 5.74438 13.8574 5.78321 14.0012C5.79679 14.0497 5.83187 14.106 5.88424 14.1642C5.99947 14.2845 6.18728 14.399 6.26833 14.4805C6.38279 14.6009 6.54606 14.8456 6.75381 14.8687C6.86453 14.8823 7.02183 14.8356 7.15186 14.758C7.26704 14.6861 7.33818 14.5852 7.45899 14.5276C7.54436 14.4848 7.63562 14.4693 7.71715 14.4498C7.8861 14.4167 8.03957 14.4113 8.13084 14.4302C8.27062 14.4594 8.60076 14.5603 8.78368 14.5602C8.9266 14.5579 9.06873 14.5383 9.20696 14.5019C9.48457 14.4203 9.8204 14.2803 10.0418 14.2181C10.1719 14.1797 10.2767 14.1695 10.3836 14.1462C10.5661 14.1034 10.7194 14.0451 10.8068 13.9344C10.7485 13.8664 10.6767 13.7616 10.2882 13.7656C9.84753 13.7754 9.33879 14.0202 9.08831 14.0591C8.83782 14.0981 8.72916 14.1311 8.44945 14.0301C8.17525 13.9282 8.16614 13.8607 8.16614 13.8607C8.16614 13.8607 7.87822 13.6595 7.75763 13.1462C7.63705 12.633 7.75739 12.2589 8.07 11.9034C8.15151 11.8121 8.13204 11.7306 8.13204 11.7306C8.13204 11.7306 8.33779 11.4529 8.2814 11.1929C8.21925 10.9346 7.82118 10.9872 7.82118 10.9872L5.61354 11.374L5.61341 11.374Z" fill="#6E6342"/>
<path fill-rule="evenodd" clip-rule="evenodd" d="M5.94568 12.238C5.92857 12.2702 5.92053 12.3065 5.92241 12.3429C5.92627 12.3952 5.9419 12.4632 6.09913 12.6166C6.23318 12.7505 6.20404 12.9 6.20404 12.9C6.20404 12.9 6.27149 12.9135 6.45451 12.8278C6.59824 12.7598 6.64653 12.8803 6.64653 12.8803C6.68836 12.8583 6.73371 12.8438 6.78053 12.8375C6.82295 12.8336 6.864 12.8205 6.90084 12.7991C6.90084 12.7991 7.06985 12.9718 7.21745 13.0533C7.35149 13.1252 7.4292 13.1737 7.49523 13.1252C7.5573 13.0824 7.55728 12.995 7.5533 12.9562C7.53789 12.9204 7.51838 12.8865 7.49516 12.8552C7.45239 12.7931 7.3844 12.7212 7.37991 12.6632C7.37014 12.5294 7.48082 12.37 7.45739 12.3312C7.43395 12.2924 7.34678 12.2827 7.13125 12.3605C6.90804 12.4343 5.94479 12.2384 5.94479 12.2384L5.94568 12.238Z" fill="#39331F"/>
<path fill-rule="evenodd" clip-rule="evenodd" d="M6.45473 13.1059C6.45473 13.1059 6.34411 13.0011 6.38276 12.4923C6.42971 12.4916 6.47659 12.4961 6.52254 12.5058C6.52254 12.5058 6.58293 12.9 6.45473 13.1059Z" fill="#292311"/>
<path fill-rule="evenodd" clip-rule="evenodd" d="M5.66595 10.9856C5.68138 10.9741 5.69569 10.9613 5.7087 10.9471C5.67032 11.019 5.49311 11.3064 5.63698 11.7588C5.78084 12.2092 6.14202 12.545 6.5867 12.5605C7.03137 12.576 7.26504 12.3583 7.53222 12.0321C7.63702 11.902 7.75742 11.7388 7.86414 11.6282C8.02333 11.4552 8.1476 11.4066 8.14756 11.2397C8.14747 10.898 7.79786 10.7446 7.28326 10.5914C6.76866 10.4382 6.30453 10.4573 6.06379 10.5623C5.82894 10.6768 5.72798 10.7972 5.66583 10.9857L5.66595 10.9856Z" fill="#252211"/>
<path fill-rule="evenodd" clip-rule="evenodd" d="M7.31879 13.259L7.35718 13.2395C7.35718 13.2395 7.36674 13.0859 7.42895 13.09C7.49103 13.0997 7.52024 13.1814 7.51436 13.2104C7.51053 13.2395 7.49505 13.2881 7.43284 13.2823C7.35131 13.2842 7.3184 13.259 7.3184 13.259L7.31879 13.259Z" fill="#3F3824"/>
<path fill-rule="evenodd" clip-rule="evenodd" d="M7.146 12.6066C7.146 12.6066 7.18439 12.593 7.23138 12.6396C7.26978 12.6396 7.4372 12.6201 7.48969 12.6531C7.54218 12.6861 7.55767 12.7151 7.55767 12.7151C7.55767 12.7151 7.36159 12.7579 7.2547 12.7152C7.14602 12.6784 7.146 12.6066 7.146 12.6066Z" fill="#2D2815"/>
<path fill-rule="evenodd" clip-rule="evenodd" d="M8.01009 12.6354C8.01009 12.6256 7.90524 12.5539 7.79451 12.5305C7.77505 12.5266 7.77109 12.5402 7.75611 12.5402C7.74638 12.5364 7.74254 12.5072 7.74254 12.5072L7.67957 12.5404C7.67957 12.5404 7.66984 12.5539 7.70287 12.5787C7.73194 12.602 7.78058 12.6215 7.79416 12.6603C7.80774 12.699 7.80774 12.7126 7.81363 12.7185C7.81747 12.7223 7.88544 12.7185 7.91846 12.699C7.95148 12.6795 8.01368 12.6478 8.00971 12.635L8.01009 12.6354Z" fill="#82764F"/>
<path fill-rule="evenodd" clip-rule="evenodd" d="M7.02958 13.0299C7.02958 13.0299 7.04887 12.8961 7.17905 12.8901C7.31293 12.8804 7.33831 13.0104 7.33831 13.0104L7.26063 13.0881C7.26063 13.0862 7.20237 13.0047 7.03022 13.0299L7.02958 13.0299Z" fill="#2D2816"/>
<path fill-rule="evenodd" clip-rule="evenodd" d="M7.87406 12.4529C7.87406 12.4529 7.80214 12.5306 7.64305 12.5539C7.62947 12.5345 7.60028 12.4957 7.64301 12.4336C7.68575 12.3715 7.73425 12.3521 7.78277 12.3714C7.80418 12.3748 7.82415 12.3844 7.84032 12.3988C7.8565 12.4132 7.8682 12.432 7.87406 12.4529Z" fill="#574F35"/>
<path fill-rule="evenodd" clip-rule="evenodd" d="M8.16724 12.548C8.1712 12.5286 8.15763 12.5247 8.16723 12.515C8.17683 12.5053 8.22943 12.4859 8.23916 12.4955C8.243 12.4995 8.23916 12.515 8.23917 12.5339C8.23917 12.5529 8.23918 12.5723 8.22946 12.5863C8.21589 12.6058 8.17711 12.6155 8.15765 12.6097C8.1382 12.604 8.13435 12.5767 8.13435 12.5713C8.14395 12.5675 8.16724 12.5578 8.16724 12.548ZM8.4987 12.3383C8.4987 12.3286 8.53172 12.3091 8.55117 12.3091C8.58023 12.3091 8.58024 12.3324 8.5842 12.3383C8.59381 12.3421 8.5938 12.3343 8.60354 12.3518C8.61327 12.3694 8.62697 12.4003 8.61712 12.4198C8.60727 12.4393 8.56862 12.4527 8.55902 12.4489C8.54545 12.4391 8.50267 12.3519 8.4987 12.3383Z" fill="#82764F"/>
<path fill-rule="evenodd" clip-rule="evenodd" d="M7.8313 12.5928C7.8313 12.5928 7.87405 12.6024 7.93231 12.651C7.91285 12.6646 7.88367 12.6801 7.88367 12.6801C7.88367 12.6801 7.87982 12.6354 7.8313 12.5927L7.8313 12.5928Z" fill="#6E6342"/>
<path fill-rule="evenodd" clip-rule="evenodd" d="M7.73607 12.1656C7.72633 12.156 7.76511 12.1327 7.78841 12.1365C7.81171 12.1403 7.82144 12.156 7.84666 12.1598C7.87187 12.1636 7.87584 12.1501 7.88505 12.1403C7.89426 12.1306 7.9278 12.1365 7.93356 12.1403C7.93715 12.1446 7.9404 12.1491 7.94329 12.1539C7.9437 12.1465 7.94562 12.1393 7.94895 12.1327C7.95227 12.126 7.95692 12.1202 7.96261 12.1155C7.97006 12.11 7.97865 12.1063 7.98774 12.1046C7.99682 12.1029 8.00617 12.1033 8.01509 12.1057C8.01893 12.1193 8.0384 12.1678 8.03456 12.1775C8.03073 12.1873 7.97249 12.201 7.96263 12.1911C7.97237 12.2145 8.01513 12.263 8.02089 12.2726C8.02666 12.2822 7.97815 12.3057 7.95882 12.3018C7.93169 12.2999 7.76462 12.2028 7.73555 12.166L7.73607 12.1656ZM7.99031 11.8432C7.98672 11.8334 7.97984 11.8252 7.97085 11.8199C7.95728 11.8161 7.91261 11.8199 7.91262 11.8432C7.91262 11.8665 7.95106 11.9968 7.99421 12.0646C8.04287 12.1326 8.07578 12.1888 8.10881 12.2044C8.11918 12.2091 8.13095 12.2097 8.14176 12.2061C8.15257 12.2025 8.1616 12.1949 8.16705 12.1849C8.17088 12.1752 8.18059 12.1034 8.17671 11.9344C8.17282 11.7655 8.16689 11.6024 8.15716 11.5927C8.14743 11.5829 8.10865 11.5831 8.09508 11.6024C8.08152 11.6217 7.99415 11.8141 7.99019 11.8432L7.99031 11.8432Z" fill="#585136"/>
<path fill-rule="evenodd" clip-rule="evenodd" d="M7.8178 12.8374C7.8178 12.8374 7.74982 12.7947 7.68378 12.8239C7.62171 12.8531 7.62558 12.9677 7.62558 12.9677C7.63954 12.9731 7.65463 12.9751 7.66954 12.9734C7.68444 12.9717 7.6987 12.9664 7.71108 12.9579C7.75382 12.9288 7.80808 12.8803 7.8178 12.8376L7.8178 12.8374Z" fill="#574F35"/>
<path fill-rule="evenodd" clip-rule="evenodd" d="M7.9461 12.9909C7.94225 12.9525 7.90769 12.9525 7.90768 12.9327C7.91006 12.9232 7.91555 12.9148 7.92328 12.9088C7.93101 12.9028 7.94052 12.8996 7.9503 12.8996C7.96975 12.8996 7.9887 12.9229 8.01252 12.938C8.03582 12.9516 8.07077 12.9764 8.07461 13.006C8.07846 13.0355 8.03624 13.1166 7.98927 13.1166C7.94229 13.1166 7.95622 13.0292 7.94648 12.9904L7.9461 12.9909ZM8.32087 12.9383C8.32087 12.9383 8.24318 12.9616 8.24893 12.9383C8.25469 12.915 8.27235 12.9093 8.29757 12.9093C8.31037 12.8958 8.3276 12.8875 8.34607 12.8858C8.35663 12.8853 8.36701 12.8888 8.37513 12.8955C8.37513 12.8955 8.4276 12.8722 8.44309 12.8858C8.45859 12.8994 8.44707 12.8994 8.45667 12.915C8.4689 12.9323 8.47692 12.9522 8.48011 12.9732C8.48011 12.9887 8.42188 13.0217 8.37516 13.016C8.32089 13.0044 8.33047 12.948 8.32087 12.9383ZM8.7732 12.8508C8.7732 12.8508 8.7965 12.8643 8.77717 12.8799C8.76361 12.8935 8.69565 12.9184 8.63728 12.9227C8.57904 12.9228 8.52669 12.9324 8.52669 12.913C8.52668 12.8937 8.57518 12.8548 8.60424 12.845C8.61006 12.8377 8.61746 12.8319 8.62588 12.8278C8.6343 12.8238 8.64353 12.8217 8.65287 12.8217C8.67617 12.8217 8.7673 12.812 8.79264 12.8081C8.81594 12.8042 8.8354 12.8177 8.82171 12.8372C8.81595 12.8508 8.7732 12.8508 8.7732 12.8508ZM8.90705 12.2512C8.90705 12.2512 8.87788 12.3133 8.84499 12.3133C8.81196 12.3094 8.81196 12.2997 8.81196 12.29C8.81195 12.2764 8.84497 12.2415 8.841 12.2317C8.8314 12.2317 8.80797 12.2317 8.81194 12.2084C8.81193 12.189 8.84495 12.1657 8.87401 12.17C8.89596 12.152 8.92329 12.1418 8.95169 12.141C8.98472 12.1409 9.01378 12.1505 9.01378 12.17C9.01379 12.1894 8.9754 12.2321 8.96132 12.2419C8.94584 12.2574 8.92638 12.2676 8.90705 12.2516L8.90705 12.2512ZM8.46461 13.3988C8.46461 13.3988 8.42621 13.4028 8.42621 13.4221C8.42622 13.4318 8.43582 13.4318 8.44951 13.4261C8.4574 13.4256 8.46522 13.4243 8.47281 13.4221C8.47665 13.4261 8.47665 13.4454 8.50584 13.4454C8.5298 13.4422 8.55289 13.4342 8.5738 13.4221C8.59709 13.4125 8.61655 13.4026 8.61654 13.3837C8.6068 13.3506 8.58734 13.335 8.55829 13.335C8.5434 13.3341 8.52855 13.3375 8.51554 13.3448C8.51554 13.3448 8.5058 13.3253 8.47279 13.3448C8.43977 13.3643 8.44361 13.3643 8.45334 13.374C8.47075 13.3895 8.46499 13.3996 8.46499 13.3996L8.46461 13.3988ZM8.24527 13.6009C8.24527 13.5911 8.29377 13.5717 8.30734 13.5775C8.32091 13.5814 8.35972 13.6551 8.35972 13.6629C8.35972 13.6726 8.31122 13.6959 8.29176 13.6959C8.2723 13.696 8.2394 13.6629 8.2394 13.6576C8.2394 13.6537 8.26269 13.648 8.26269 13.644C8.26845 13.6344 8.24527 13.611 8.24527 13.6012L8.24527 13.6009ZM8.09159 13.3174C8.10132 13.3135 8.10132 13.3038 8.11488 13.2941C8.11913 13.2912 8.12397 13.2894 8.12903 13.2888C8.13409 13.2881 8.13923 13.2886 8.14407 13.2902C8.14749 13.2841 8.15223 13.2788 8.15794 13.2748C8.16365 13.2707 8.17019 13.268 8.17708 13.2668C8.20038 13.2629 8.21984 13.2668 8.21549 13.2765C8.21549 13.3057 8.23496 13.325 8.23496 13.3483C8.23497 13.3716 8.22141 13.4008 8.1729 13.4203C8.12439 13.4338 8.05835 13.4339 8.04862 13.43C8.03889 13.4262 8.02915 13.3873 8.03887 13.3678C8.04859 13.3484 8.07573 13.3271 8.09134 13.3174L8.09159 13.3174Z" fill="#82764F"/>
<path fill-rule="evenodd" clip-rule="evenodd" d="M8.15339 13.3306C8.15339 13.3306 8.12037 13.35 8.12037 13.3597C8.11744 13.3691 8.11615 13.379 8.11654 13.3888C8.11654 13.3946 8.15929 13.385 8.16505 13.3791C8.16697 13.3752 8.15339 13.3407 8.15339 13.3306Z" fill="#6E6342"/>
<path fill-rule="evenodd" clip-rule="evenodd" d="M7.86452 13.2394C7.88385 13.2433 7.91687 13.2394 7.94209 13.2491C7.96155 13.2588 7.97512 13.2783 7.95567 13.3016C7.93622 13.3249 7.91729 13.3598 7.87415 13.3539C7.82564 13.3501 7.77904 13.3249 7.77903 13.3054C7.77821 13.2931 7.77985 13.2808 7.78385 13.2691C7.78784 13.2575 7.79412 13.2467 7.80231 13.2375C7.82176 13.222 7.83136 13.2317 7.86439 13.2394L7.86452 13.2394Z" fill="#585136"/>
<path fill-rule="evenodd" clip-rule="evenodd" d="M7.84117 13.2588C7.84117 13.2588 7.7791 13.3074 7.7635 13.3308C7.74405 13.3541 7.64897 13.4744 7.61992 13.4997C7.62957 13.4826 7.64057 13.4664 7.65281 13.4511C7.61441 13.4757 7.58564 13.5127 7.5713 13.556C7.54802 13.6279 7.70151 13.6667 7.80238 13.6958C7.90325 13.725 7.94229 13.7342 7.94229 13.7342C7.90514 13.6784 7.87325 13.6193 7.84701 13.5576C7.80859 13.4663 7.78875 13.4566 7.81395 13.4139C7.83339 13.3711 7.86257 13.342 7.86256 13.309C7.85091 13.2783 7.84117 13.2588 7.84117 13.2588Z" fill="#574F35"/>
<path fill-rule="evenodd" clip-rule="evenodd" d="M5.62772 13.4128C5.64186 13.4154 5.65634 13.4154 5.67048 13.4128C5.69953 13.4088 6.00248 13.2975 6.31903 13.3174C6.556 13.3317 6.79088 13.3702 7.01998 13.4324C7.41809 13.5371 7.91325 13.7447 8.23367 13.8632C8.31905 13.8961 8.40265 13.9544 8.4641 13.9776C8.70886 14.0727 8.71846 14.0727 8.86221 14.0979C9.03118 14.1211 9.20396 14.0648 9.38456 14.026C9.60586 13.9773 9.98448 13.9539 10.3165 13.9053C10.4239 13.8903 10.5298 13.8663 10.633 13.8334C10.633 13.8334 10.369 14.0975 9.73596 14.1928C9.48008 14.2317 9.22004 14.235 8.96323 14.2027C8.76124 14.1833 8.62735 14.1542 8.52635 14.1251C8.41178 14.0921 8.17675 14.0048 7.88745 13.9333C7.68545 13.8809 7.46016 13.8421 7.20197 13.7937C6.56501 13.6773 5.87377 13.5436 5.62747 13.4136L5.62772 13.4128Z" fill="#252211"/>
<path fill-rule="evenodd" clip-rule="evenodd" d="M4.91262 12.2131C4.75906 12.3432 4.59615 12.4675 4.43708 12.5879L3.95756 12.9565C3.79452 13.0769 3.63532 13.2012 3.47215 13.3217C3.30899 13.4422 3.14607 13.5567 2.97305 13.6674C3.12661 13.5374 3.28952 13.4169 3.45256 13.2984C3.6156 13.18 3.78466 13.0638 3.94194 12.9437L4.42146 12.5746C4.58642 12.4542 4.74562 12.3299 4.91262 12.2134L4.91262 12.2131ZM4.06448 13.5726C4.06448 13.5726 4.23724 13.4288 4.45274 13.2269C4.72057 12.9764 5.04868 12.6558 5.1535 12.5977L4.06435 13.5727L4.06448 13.5726Z" fill="#CFB66C"/>
<path fill-rule="evenodd" clip-rule="evenodd" d="M4.06447 13.5724C4.14995 13.487 4.24119 13.4036 4.33244 13.3219L4.47218 13.2015C4.51492 13.1631 4.56355 13.12 4.60616 13.0772C4.69152 12.9918 4.77508 12.9004 4.86043 12.8131C4.90273 12.7691 4.94746 12.7276 4.99441 12.6887C5.01788 12.6679 5.04395 12.6503 5.07196 12.6362C5.09538 12.6227 5.12059 12.5978 5.15349 12.5935C5.13417 12.6226 5.11088 12.6362 5.09143 12.6614C5.06814 12.6809 5.04869 12.7042 5.02936 12.7235C4.98662 12.7663 4.93812 12.8051 4.89538 12.844C4.80414 12.9217 4.70905 12.9977 4.61781 13.079C4.52657 13.1603 4.44122 13.248 4.34985 13.3295C4.25092 13.4132 4.15968 13.4947 4.06447 13.5728L4.06447 13.5724ZM5.22548 12.7954C5.22548 12.7954 4.59269 13.4151 4.46254 13.516L5.22548 12.7954Z" fill="#CFB66C"/>
<path fill-rule="evenodd" clip-rule="evenodd" d="M5.22554 12.7953C5.16862 12.8613 5.10758 12.9235 5.0428 12.9817L4.85085 13.1643C4.78879 13.2264 4.73044 13.2886 4.66454 13.3507C4.59658 13.409 4.53452 13.466 4.4626 13.5198L4.64892 13.3372C4.71111 13.2751 4.77906 13.2227 4.84509 13.1605L5.03141 12.9779C5.09539 12.9139 5.15759 12.8517 5.22554 12.7953ZM5.25468 13.1312C5.19638 13.294 5.12768 13.453 5.04899 13.607C4.886 13.9333 4.64151 14.3411 4.53468 14.549L5.25468 13.1312Z" fill="#CFB66C"/>
<path fill-rule="evenodd" clip-rule="evenodd" d="M5.2546 13.1314C5.25462 13.2032 5.23518 13.2654 5.2119 13.3275C5.18921 13.3896 5.16333 13.4506 5.13438 13.5101C5.10521 13.5683 5.0722 13.6305 5.03919 13.6868C5.00618 13.7432 4.96742 13.8013 4.93825 13.8597L4.74224 14.2053C4.67431 14.3205 4.60829 14.4364 4.53651 14.5471C4.58499 14.4228 4.65101 14.3063 4.71319 14.1918C4.78112 14.0766 4.84317 13.9613 4.90509 13.8421C4.93532 13.7828 4.96252 13.7219 4.98658 13.6597C5.01562 13.5975 5.04466 13.5393 5.06807 13.4829C5.09711 13.4208 5.12039 13.3625 5.14956 13.3063C5.18244 13.246 5.20968 13.1877 5.25434 13.1314L5.2546 13.1314Z" fill="#CFB66C"/>
<path fill-rule="evenodd" clip-rule="evenodd" d="M5.94637 14.7233C5.94637 14.7233 5.75443 14.9777 5.77372 15.3C5.82603 15.1312 5.89201 14.8729 5.94637 14.7233ZM6.12896 14.9783C6.12896 14.9783 6.06118 15.6695 6.00495 16.0093C6.08446 15.6165 6.09996 15.6495 6.12896 14.9783ZM7.40106 16.0498C7.40106 16.0498 7.11393 16.8947 7.1081 17.1294C7.17024 16.888 7.29043 16.3948 7.40106 16.0492L7.40106 16.0498Z" fill="#DEC270"/>
<path fill-rule="evenodd" clip-rule="evenodd" d="M8.07275 14.6705C8.07275 14.6705 8.53901 15.4393 8.88875 16.0955C8.79407 15.7653 8.57631 15.1596 8.07275 14.6705Z" fill="#CBAF59"/>
<path fill-rule="evenodd" clip-rule="evenodd" d="M9.32544 15.8021C9.58144 16.2544 9.81232 16.7204 10.017 17.198C9.97814 16.8679 9.87303 16.303 9.32544 15.8021Z" fill="#E3C677"/>
<path fill-rule="evenodd" clip-rule="evenodd" d="M13.0072 16.9349C13.0847 16.8864 13.2381 16.6221 13.3721 16.5562C13.506 16.4882 13.607 16.4746 13.7274 16.3405C13.8477 16.2006 13.8809 16.1152 14.1447 16.0045C14.5137 15.8451 14.2598 15.6393 14.2598 15.6393C14.3004 15.5994 14.3439 15.5624 14.3898 15.5287C14.485 15.4569 14.5956 15.3694 14.586 15.2159C14.5723 14.9578 14.5237 14.583 14.3119 14.3656C14.5178 14.3228 14.9119 14.2936 15.1567 14.2315C15.4401 14.1595 15.5702 14.0584 15.5702 14.0584C15.5702 14.0584 15.4071 13.7808 15.6711 13.5012C15.9351 13.2216 16.1506 13.0545 16.3097 12.7418C16.1272 12.7185 15.8489 12.6216 15.1388 12.8916C15.1772 12.9096 15.2142 12.9303 15.2495 12.9536C15.2495 12.9536 14.8127 13.0742 14.6535 13.2083C14.3758 13.4432 14.3409 13.6355 14.04 13.7793C13.7392 13.9231 13.4362 13.8843 13.1858 14.0008C12.9355 14.1174 12.8985 14.2165 12.8071 14.2592C12.8266 14.2825 12.8033 14.3213 12.8402 14.3543C12.8169 14.3874 12.681 14.6087 12.5432 14.6088C12.5568 14.6612 12.6732 14.7 12.6732 14.7C12.6732 14.7 12.5879 14.7622 12.3704 14.7778C12.481 14.8929 12.586 15.0185 12.8754 15.2009C12.8521 15.2494 12.755 15.3214 12.7939 15.4127C12.8367 15.5039 12.9475 15.6282 13.3901 15.729C13.1648 15.7387 12.9009 15.7912 12.5453 15.7428C12.1899 15.7002 12.1317 15.675 11.9123 15.7294C11.9356 15.7527 11.9977 15.7527 12.0521 15.8148C11.9939 15.8186 11.6288 15.7721 11.5046 15.9354C11.3746 16.1042 11.3183 16.382 11.3281 16.5684C11.2601 16.6014 11.1941 16.6597 11.2272 16.7801C11.2602 16.9006 11.433 16.9393 11.5438 17.0149C11.6544 17.0964 11.6641 17.1255 11.7691 17.1061C11.8796 17.0828 12.0427 16.9722 12.1379 16.9721C12.2332 16.9721 12.301 17.0439 12.301 17.0439C12.301 17.0439 12.5593 16.9195 12.5845 16.9428C12.6078 16.9661 12.5884 17.1156 12.6136 17.1389C12.6392 17.1564 12.9301 16.9836 13.0078 16.9349L13.0072 16.9349Z" fill="#ECD592"/>
</svg>
