<svg width="25" height="25" viewBox="0 0 25 25" fill="none" xmlns="http://www.w3.org/2000/svg">
<g clip-path="url(#clip0_59_7329)">
<path d="M12.0534 22.7442C17.9635 22.7426 22.7533 17.9502 22.7517 12.0401C22.7501 6.12995 17.9578 1.34015 12.0476 1.34173C6.13753 1.34332 1.34772 6.1357 1.34931 12.0458C1.35089 17.9559 6.14327 22.7457 12.0534 22.7442Z" fill="#4B4C5A"/>
<path d="M12.0474 0.0429216C9.67399 0.0435586 7.3541 0.747969 5.38107 2.06708C3.40803 3.38618 1.87047 5.26074 0.962803 7.4537C0.0551396 9.64665 -0.181853 12.0595 0.281795 14.3872C0.745442 16.7148 1.88891 18.8527 3.56759 20.5305C5.24627 22.2083 7.38477 23.3506 9.71267 23.813C12.0406 24.2754 14.4533 24.0371 16.6458 23.1282C18.8382 22.2194 20.712 20.6808 22.03 18.7071C23.3481 16.7333 24.0512 14.4131 24.0506 12.0397V12.0397C24.0548 10.4684 23.7494 8.91169 23.1519 7.45842C22.5545 6.00515 21.6766 4.68379 20.5685 3.56978C19.4603 2.45577 18.1437 1.57094 16.6936 0.965795C15.2435 0.360653 13.6884 0.0470532 12.1171 0.0429028L12.0474 0.0429216ZM12.2541 12.4496L11.0058 16.6631L17.6886 16.6613C17.7329 16.6597 17.777 16.6669 17.8185 16.6824C17.86 16.6979 17.8981 16.7214 17.9304 16.7516C17.9628 16.7819 17.989 16.8182 18.0073 16.8585C18.0257 16.8988 18.0359 16.9423 18.0374 16.9866L18.0374 17.097L17.4568 19.102C17.4312 19.1968 17.3742 19.2801 17.295 19.3382C17.2158 19.3963 17.1192 19.4258 17.0211 19.4217L6.79349 19.4245L8.50621 13.5838L6.58869 14.1655L7.02417 12.8288L8.94169 12.2471L11.3511 4.05279C11.3776 3.95851 11.4349 3.87581 11.5139 3.81787C11.5929 3.75993 11.689 3.73007 11.7869 3.73306L14.3728 3.73237C14.4171 3.73081 14.4612 3.73798 14.5027 3.75349C14.5442 3.769 14.5822 3.79253 14.6146 3.82274C14.647 3.85296 14.6731 3.88926 14.6915 3.92958C14.7098 3.96989 14.7201 4.01343 14.7216 4.0577L14.7216 4.16811L12.6896 11.0839L14.6071 10.5023L14.2007 11.8971L12.2541 12.4496Z" fill="white"/>
</g>
<defs>
<clipPath id="clip0_59_7329">
<rect width="24" height="24" fill="white" transform="translate(0.0473633 0.0461426) rotate(-0.0153792)"/>
</clipPath>
</defs>
</svg>
