<svg width="25" height="23" viewBox="0 0 25 23" fill="none" xmlns="http://www.w3.org/2000/svg">
<g clip-path="url(#clip0_59_7363)">
<path fill-rule="evenodd" clip-rule="evenodd" d="M4.49269 0.198669L0.119253 9.88589C0.10261 9.92192 0.0973442 9.96262 0.104225 10.002C0.111105 10.0414 0.129771 10.0775 0.157493 10.1049L11.9793 22.0357C12.0129 22.0696 12.0576 22.0886 12.1041 22.0886C12.1507 22.0885 12.1954 22.0696 12.2289 22.0357L24.0444 10.0993C24.0721 10.0718 24.0907 10.0358 24.0976 9.99634C24.1044 9.95692 24.0991 9.91623 24.0825 9.88021L19.7038 0.195331C19.6897 0.162805 19.667 0.135254 19.6384 0.115971C19.6098 0.0966881 19.5765 0.0864888 19.5426 0.0865922L4.65529 0.0905882C4.62118 0.0901502 4.58768 0.100121 4.55883 0.119299C4.52998 0.138477 4.50701 0.166042 4.49269 0.198669Z" fill="#50AF95"/>
<path fill-rule="evenodd" clip-rule="evenodd" d="M13.6196 10.8769C13.5347 10.8836 13.0964 10.9113 12.1185 10.9116C11.3407 10.9118 10.7885 10.8874 10.5948 10.8777C7.58897 10.7392 5.3453 10.1884 5.34512 9.5283C5.34494 8.86816 7.58832 8.31694 10.594 8.17457L10.5946 10.3286C10.7912 10.3434 11.354 10.3783 12.1318 10.3781C13.0651 10.3779 13.5325 10.3368 13.6166 10.3285L13.616 8.17525C16.6155 8.31526 18.8542 8.86602 18.8544 9.52467C18.8545 10.1833 16.6168 10.7353 13.6168 10.8762L13.6196 10.8769ZM13.6188 7.95247L13.6183 6.02494L17.8041 6.02382L17.8033 3.08448L6.40682 3.08754L6.40761 6.02688L10.5927 6.02576L10.5933 7.95254C7.1916 8.11811 4.63362 8.82886 4.63385 9.67974C4.63408 10.5306 7.19244 11.2393 10.5942 11.4038L10.5958 17.5805L13.6207 17.5797L13.619 11.4007C17.0129 11.2351 19.5666 10.5251 19.5664 9.67499C19.5662 8.82485 17.0142 8.11622 13.6181 7.95172L13.6188 7.95247Z" fill="#4B4C5A"/>
</g>
<defs>
<clipPath id="clip0_59_7363">
<rect width="24" height="22" fill="white" transform="translate(0.0981445 0.0917969) rotate(-0.0153792)"/>
</clipPath>
</defs>
</svg>
