<svg width="146" height="66" viewBox="0 0 146 66" fill="none" xmlns="http://www.w3.org/2000/svg">
<path d="M64.7656 25.8929C65.5799 31.0233 66.8077 35.4579 67.6558 37.948L60.0222 43.8678V34.3823C60.0222 32.0511 60.9281 29.8157 62.5406 28.1674L64.7656 25.8929Z" fill="white"/>
<path d="M78.3442 37.948C79.1923 35.4579 80.4197 31.0233 81.2344 25.8929L83.4594 28.1674C85.0719 29.8157 85.9778 32.0511 85.9778 34.3823V43.8678L78.3442 37.948Z" fill="white"/>
<path d="M72.6421 21.6583C71.6834 21.6583 70.8911 22.4662 70.8911 23.4824C70.8911 24.4983 71.6834 25.3065 72.6421 25.3065H73.6823C74.641 25.3065 75.4333 24.4983 75.4333 23.4824C75.4333 22.4662 74.641 21.6583 73.6823 21.6583H72.6421Z" fill="white"/>
<path d="M70.8911 15.8542C70.8911 14.8381 71.6834 14.0301 72.6421 14.0301H73.6823C74.641 14.0301 75.4333 14.8381 75.4333 15.8542C75.4333 16.8703 74.641 17.6783 73.6823 17.6783H72.6421C71.6834 17.6783 70.8911 16.8703 70.8911 15.8542Z" fill="white"/>
<path fill-rule="evenodd" clip-rule="evenodd" d="M69.1911 37.4121C68.2891 34.7664 66.9115 29.7421 66.1313 24.031C65.7701 21.3886 65.5378 18.6078 65.5378 15.8542C65.5378 10.6908 67.5179 6.63045 69.5175 3.84535C70.5164 2.45351 71.5154 1.38746 72.2623 0.671509C72.5517 0.394043 72.8025 0.169743 73.0001 0C73.1977 0.169743 73.4484 0.394043 73.7378 0.671509C74.4847 1.38746 75.4837 2.45351 76.4827 3.84535C78.4822 6.63045 80.4623 10.6908 80.4623 15.8542C80.4623 18.6078 80.23 21.3886 79.8689 24.031C79.0886 29.7421 77.711 34.7664 76.809 37.4121H69.1911ZM69.5934 23.4824C69.5934 21.7508 70.9499 20.3317 72.6422 20.3317H73.6824C75.3747 20.3317 76.7312 21.7508 76.7312 23.4824C76.7312 25.2137 75.3747 26.6332 73.6824 26.6332H72.6422C70.9499 26.6332 69.5934 25.2137 69.5934 23.4824ZM72.6422 12.7034C70.9499 12.7034 69.5934 14.1227 69.5934 15.8542C69.5934 17.5857 70.9499 19.005 72.6422 19.005H73.6824C75.3747 19.005 76.7312 17.5857 76.7312 15.8542C76.7312 14.1227 75.3747 12.7034 73.6824 12.7034H72.6422Z" fill="white"/>
<path d="M70.1969 40.7286L69.7102 39.0703H76.2899L75.8033 40.7286H70.1969Z" fill="white"/>
<path fill-rule="evenodd" clip-rule="evenodd" d="M0 60.0302C0 56.7331 2.61467 54.0603 5.84 54.0603H12.1667V56.0503H5.84C3.68978 56.0503 1.94667 57.8323 1.94667 60.0302C1.94667 62.2281 3.68978 64.0101 5.84 64.0101H12.1667V66H5.84C2.61467 66 0 63.3272 0 60.0302Z" fill="white"/>
<path fill-rule="evenodd" clip-rule="evenodd" d="M114.853 60.0302C114.853 56.7331 117.468 54.0603 120.693 54.0603H127.02V56.0503H120.693C118.543 56.0503 116.8 57.8323 116.8 60.0302C116.8 62.2281 118.543 64.0101 120.693 64.0101H125.235V60.0302H127.182V65.005C127.182 65.5546 126.746 66 126.209 66H120.693C117.468 66 114.853 63.3272 114.853 60.0302Z" fill="white"/>
<path fill-rule="evenodd" clip-rule="evenodd" d="M88.4111 60.0302C88.4111 56.7331 91.0258 54.0603 94.2511 54.0603H96.36C99.5853 54.0603 102.2 56.7331 102.2 60.0302C102.2 63.3272 99.5853 66 96.36 66H94.2511C91.0258 66 88.4111 63.3272 88.4111 60.0302ZM94.2511 56.0503C92.101 56.0503 90.3578 57.8323 90.3578 60.0302C90.3578 62.2281 92.101 64.0101 94.2511 64.0101H96.36C98.5101 64.0101 100.253 62.2281 100.253 60.0302C100.253 57.8323 98.5101 56.0503 96.36 56.0503H94.2511Z" fill="white"/>
<path fill-rule="evenodd" clip-rule="evenodd" d="M132.211 60.0302C132.211 56.7331 134.826 54.0603 138.051 54.0603H140.16C143.385 54.0603 146 56.7331 146 60.0302C146 63.3272 143.385 66 140.16 66H138.051C134.826 66 132.211 63.3272 132.211 60.0302ZM138.051 56.0503C135.901 56.0503 134.158 57.8323 134.158 60.0302C134.158 62.2281 135.901 64.0101 138.051 64.0101H140.16C142.31 64.0101 144.053 62.2281 144.053 60.0302C144.053 57.8323 142.31 56.0503 140.16 56.0503H138.051Z" fill="white"/>
<path fill-rule="evenodd" clip-rule="evenodd" d="M55.3179 55.0553C55.3179 54.5057 55.7536 54.0603 56.2912 54.0603H63.0234C65.3082 54.0603 67.1601 55.9534 67.1601 58.2889C67.1601 60.6245 65.3082 62.5176 63.0234 62.5176H57.2645V66H55.3179V55.0553ZM57.2645 60.5276H63.0234C64.233 60.5276 65.2134 59.5254 65.2134 58.2889C65.2134 57.0525 64.233 56.0503 63.0234 56.0503H57.2645V60.5276Z" fill="white"/>
<path fill-rule="evenodd" clip-rule="evenodd" d="M71.0532 54.0603H84.5177V56.0503H78.7588V66H76.8121V56.0503H71.0532V54.0603Z" fill="white"/>
<path d="M36.4553 54.0603L40.1631 62.0327C40.3243 62.3796 40.6666 62.6005 41.0423 62.6005H42.2155V66H44.1622V62.6005H45.3354C45.7111 62.6005 46.0534 62.3796 46.2146 62.0327L49.9227 54.0603H47.7671L44.7205 60.6106H41.6571L38.6106 54.0603H36.4553Z" fill="white"/>
<path fill-rule="evenodd" clip-rule="evenodd" d="M20.2778 54.0603C19.7402 54.0603 19.3044 54.5057 19.3044 55.0553V66H21.2511V62.5176H23.3003L27.5223 66H30.6224L26.4004 62.5176H27.01C29.2947 62.5176 31.1467 60.6245 31.1467 58.2889C31.1467 55.9534 29.2947 54.0603 27.01 54.0603H20.2778ZM27.01 60.5276H21.2511V56.0503H27.01C28.2195 56.0503 29.2 57.0525 29.2 58.2889C29.2 59.5254 28.2195 60.5276 27.01 60.5276Z" fill="white"/>
</svg>
