<svg width="25" height="25" viewBox="0 0 25 25" fill="none" xmlns="http://www.w3.org/2000/svg">
<path d="M10.7865 20.7234C10.6096 20.9235 10.3562 21.038 10.0902 21.0381C9.4913 21.0382 9.04749 20.4779 9.18072 19.8899L10.4511 14.2825C10.4795 14.1573 10.385 14.038 10.2574 14.038L6.03064 14.0392C5.26322 14.0394 4.82766 13.1543 5.29259 12.5394C7.29346 10.311 9.48124 7.70069 13.4158 3.34594C13.593 3.14983 13.8452 3.03708 14.1084 3.03701C14.7098 3.03685 15.1555 3.59949 15.0217 4.19L13.7524 9.79256C13.7241 9.91778 13.8186 10.0371 13.9461 10.0371L18.1715 10.0359C18.9389 10.0357 19.3744 10.9208 18.9095 11.5357L10.7865 20.7234Z" fill="#F7DA69"/>
</svg>
